<?xml version="1.0" encoding="utf-8"?>
<!-- Generator: Adobe Illustrator 21.1.0, SVG Export Plug-In . SVG Version: 6.00 Build 0)  -->
<svg version="1.1" id="Layer_1" xmlns="http://www.w3.org/2000/svg" xmlns:xlink="http://www.w3.org/1999/xlink" x="0px" y="0px"
	 viewBox="0 0 223.6 40" style="enable-background:new 0 0 223.6 40;" xml:space="preserve">
<style type="text/css">
	.st0{fill:#6EBDE3;}
	.st1{fill:#23945D;}
	.st2{fill:#FFFFFF;}
	.st3{fill:#00AEE5;}
	.st4{fill:url(#SVGID_1_);}
	.st5{fill:#8C2889;}
	.st6{fill:#058943;}
	.st7{fill:#F9ED25;}
	.st8{fill:#FFFFFF;}
</style>
<g id="Layer_1_1_">
	<g>
		<rect x="7.8" y="0.1" class="st0" width="22.3" height="29.2"/>
		<polygon class="st1" points="11,0.1 30.1,26.3 11,26.3 		"/>
		<path class="st2" d="M4.7,22c0-3.2,1.2-6.1,3.1-8.4V7.4C3.1,10.7,0,16,0,22c0,10,8.4,18,18.8,18s18.7-8,18.7-18
			c0-5.9-2.9-11.1-7.4-14.4V14c1.7,2.2,2.7,5,2.7,8c0,3.6-1.4,6.8-3.8,9.2l0,0c0,0-0.1-0.1-0.2-0.1c-0.1-0.1-0.2-0.1-0.4-0.2
			c-0.2-0.1-0.3-0.3-0.5-0.4c0,0-0.1,0-0.1-0.1c-0.1-0.1-0.2-0.1-0.3-0.2c-0.1,0-0.4-0.1-0.4-0.1c-0.1,0-0.4,0-0.4,0l0,0l0,0
			c-0.2,0-0.3,0.1-0.4,0.2c0,0,0,0-0.1,0l0,0l0,0c-0.1,0-0.2-0.1-0.3-0.1c-0.2,0-0.2,0.1-0.4,0.2c-0.1-0.1-0.2-0.2-0.3-0.2
			c-0.1,0-0.2,0-0.3-0.1c-0.1,0-0.2,0-0.3,0.1l0,0l0,0l0,0h-0.1h-0.1c-0.1,0-0.2,0-0.3,0.1c-0.1,0.1-0.2,0.1-0.3,0.2
			c-0.1,0.1-0.2,0.1-0.3,0.2c-0.1,0-0.1,0.1-0.2,0.2C23.1,31,23.1,31,23,31.2l-0.2,0.2l-0.2,0.1l-0.4,0.2h-0.1
			c-0.1-0.1-0.2-0.1-0.3-0.1c-0.1,0-0.2-0.1-0.4,0c-0.1,0-0.1,0-0.2,0s-0.2,0-0.3,0.1c-0.5-0.3-1-0.4-1.7-0.3
			c-0.4,0.1-0.7,0.1-1,0.3c0,0-0.1,0.1-0.2,0.1l-0.1-0.1c-0.1-0.1-0.3-0.1-0.5-0.2c-0.1,0-0.2,0-0.3,0c-0.1-0.1-0.3-0.2-0.4-0.2
			c-0.3-0.3-0.9-0.6-1.3-0.8c0,0-0.1,0-0.1-0.1c-0.1,0-0.1-0.1-0.2-0.1c-0.1-0.1-0.1-0.2-0.2-0.2c-0.1-0.1-0.3-0.1-0.5-0.2l0,0
			c-0.1-0.2-0.3-0.2-0.5-0.2c-0.1,0-0.2,0-0.2,0c-0.2,0-0.3,0-0.5,0.1c-0.1,0.1-0.2,0.1-0.4,0.2c-0.1,0.1-0.2,0.1-0.3,0.2
			c-0.1,0-0.1,0.1-0.2,0.1c-0.2,0.1-0.3,0.2-0.5,0.2c-0.1,0.1-0.2,0.1-0.4,0.2c-0.1,0.1-0.3,0.2-0.4,0.4c0,0.1-0.1,0.1-0.1,0.2
			c-0.1,0-0.3,0-0.4,0c-0.3,0-0.6,0-0.8,0.2l0,0c-0.1,0-0.1,0.1-0.2,0.1c0,0.3,0,0.4-0.2,0.4C6.5,29.5,4.7,26,4.7,22L4.7,22z
			 M28.9,31.4c-2.6,2.5-6.1,4.1-10.1,4.1c-3.6,0-6.8-1.3-9.3-3.4C9.6,32,9.7,32,9.9,31.8c0.1-0.1,0.2-0.1,0.2-0.1
			c0.2-0.2,1,0,1.2-0.2c0.1-0.1,0.1-0.3,0.4-0.5c0.4-0.3,1-0.6,1-0.6c0-0.1,0.1-0.2,0.2-0.2c0.1,0,0.2-0.1,0.3-0.2s0.2-0.1,0.4-0.1
			c0.1,0,0.4-0.1,0.5,0.1c0,0,0.1,0.1,0.2,0.1c0.1,0,0.3,0,0.4,0.1c0.1,0.1,0.1,0.1,0.2,0.2c0,0,0.2,0.1,0.3,0.2
			c0.3,0.1,1.1,0.5,1.3,0.8c0,0,0.1,0.1,0.2,0.1c-0.1,0-0.2,0.1-0.3,0.1c-0.1,0-0.2,0.1-0.3,0.2c-0.1,0-0.2,0.1-0.3,0.2
			c-0.1,0-0.2,0.1-0.3,0.1c-0.4,0-0.7,0.2-1.1,0.4l-0.6,0.4l-1.5,0.8l0,0l1.6-0.6l0.7-0.4c0.4-0.2,0.6-0.4,1-0.4
			c0.1,0,0.3-0.1,0.4-0.2c0.1-0.1,0.2-0.1,0.2-0.1c0.1,0,0.2-0.1,0.3-0.2c0.2-0.2,0.5-0.1,0.7-0.1c0.6,0,0.4,0.5,0.9,0.2
			c0.3-0.2,0.6-0.2,0.9-0.3c0.6-0.1,1.1,0,1.7,0.4c0,0,0.2-0.2,0.3-0.2s0.3-0.1,0.5,0s0.4,0.2,0.5,0.3c0.1,0.1,0.7,0.6,0.7,0.6
			s0.2,0.1,0.4,0.1c0.4,0.1,1.1,0.4,1.6,0.7l0,0L24,32.9c-0.7-0.3-0.1-0.3-0.9-0.4c-0.1,0-0.2,0-0.3-0.1c-0.1-0.1-0.2-0.2-0.4-0.3
			c-0.1-0.1-0.2-0.2-0.4-0.3l0,0l0,0l0.4-0.2l0.2-0.1l0.2-0.2c0.1-0.2,0.1-0.2,0.2-0.3c0,0,0.1-0.2,0.2-0.2l0.3-0.2
			c0.1-0.1,0.2-0.1,0.3-0.2c0.1,0,0.1,0,0.2,0h0.1c0.1,0,0.1,0,0.3-0.1c0.2-0.1,0.2-0.1,0.4,0l0.2,0.2c0.1,0,0.1,0,0.2,0
			c0.1-0.1,0.1-0.2,0.2-0.2l0.2,0.1l0.1,0.1h0.2c0.1-0.1,0.2-0.2,0.3-0.2h0.4l0.3,0.1l0.2,0.1l0.1,0.1c0.1,0.1,0.3,0.3,0.5,0.4
			c0.1,0.1,0.3,0.1,0.3,0.2C28.7,31.2,28.8,31.3,28.9,31.4L28.9,31.4z"/>
		<path class="st3" d="M28.9,31.4c-2.6,2.5-6.1,4.1-10.1,4.1c-3.6,0-6.8-1.3-9.3-3.4C9.6,32,9.7,32,9.9,31.8
			c0.1-0.1,0.2-0.1,0.2-0.1c0.2-0.2,1,0,1.2-0.2c0.1-0.1,0.1-0.3,0.4-0.5c0.4-0.3,1-0.6,1-0.6c0-0.1,0.1-0.2,0.2-0.2
			c0.1,0,0.2-0.1,0.3-0.2s0.2-0.1,0.4-0.1c0.1,0,0.4-0.1,0.5,0.1c0,0,0.1,0.1,0.2,0.1c0.1,0,0.3,0,0.4,0.1c0.1,0.1,0.1,0.1,0.2,0.2
			c0,0,0.2,0.1,0.3,0.2c0.3,0.1,1.1,0.5,1.3,0.8c0,0,0.1,0.1,0.2,0.1c-0.1,0-0.2,0.1-0.3,0.1c-0.1,0-0.2,0.1-0.3,0.2
			c-0.1,0-0.2,0.1-0.3,0.2c-0.1,0-0.2,0.1-0.3,0.1c-0.4,0-0.7,0.2-1.1,0.4l-0.6,0.4l-1.5,0.8l0,0l1.6-0.6l0.7-0.4
			c0.4-0.2,0.6-0.4,1-0.4c0.1,0,0.3-0.1,0.4-0.2c0.1-0.1,0.2-0.1,0.2-0.1c0.1,0,0.2-0.1,0.3-0.2c0.2-0.2,0.5-0.1,0.7-0.1
			c0.6,0,0.4,0.5,0.9,0.2c0.3-0.2,0.6-0.2,0.9-0.3c0.6-0.1,1.1,0,1.7,0.4c0,0,0.2-0.2,0.3-0.2s0.3-0.1,0.5,0s0.4,0.2,0.5,0.3
			c0.1,0.1,0.7,0.6,0.7,0.6s0.2,0.1,0.4,0.1c0.4,0.1,1.1,0.4,1.6,0.7l0,0L24,32.9c-0.7-0.3-0.1-0.3-0.9-0.4c-0.1,0-0.2,0-0.3-0.1
			c-0.1-0.1-0.2-0.2-0.4-0.3c-0.1-0.1-0.2-0.2-0.4-0.3l0,0l0,0l0.4-0.2l0.2-0.1l0.2-0.2c0.1-0.2,0.1-0.2,0.2-0.3
			c0,0,0.1-0.2,0.2-0.2l0.3-0.2c0.1-0.1,0.2-0.1,0.3-0.2c0.1,0,0.1,0,0.2,0h0.1c0.1,0,0.1,0,0.3-0.1c0.2-0.1,0.2-0.1,0.4,0l0.2,0.2
			c0.1,0,0.1,0,0.2,0c0.1-0.1,0.1-0.2,0.2-0.2l0.2,0.1l0.1,0.1h0.2c0.1-0.1,0.2-0.2,0.3-0.2h0.4l0.3,0.1l0.2,0.1l0.1,0.1
			c0.1,0.1,0.3,0.3,0.5,0.4c0.1,0.1,0.3,0.1,0.3,0.2C28.7,31.2,28.8,31.3,28.9,31.4L28.9,31.4z"/>
		
			<linearGradient id="SVGID_1_" gradientUnits="userSpaceOnUse" x1="18.75" y1="-101.1467" x2="18.75" y2="139.5459" gradientTransform="matrix(1 0 0 -1 0 42)">
			<stop  offset="0" style="stop-color:#87B7E2"/>
			<stop  offset="1" style="stop-color:#FBFDFF"/>
		</linearGradient>
		<path class="st4" d="M30.1,14c1.7,2.2,2.7,5,2.7,8c0,3.6-1.4,6.8-3.8,9.2l0,0c0,0-0.1-0.1-0.2-0.1c-0.1-0.1-0.2-0.1-0.4-0.2
			c-0.2-0.1-0.3-0.3-0.5-0.4c0,0-0.1,0-0.1-0.1c-0.1-0.1-0.2-0.1-0.3-0.2c-0.1,0-0.4-0.1-0.4-0.1c-0.1,0-0.4,0-0.4,0l0,0l0,0
			c-0.2,0-0.3,0.1-0.4,0.2c0,0,0,0-0.1,0l0,0l0,0c-0.1,0-0.2-0.1-0.3-0.1c-0.2,0-0.2,0.1-0.4,0.2c-0.1-0.1-0.2-0.2-0.3-0.2
			c-0.1,0-0.2,0-0.3-0.1c-0.1,0-0.2,0-0.3,0.1l0,0l0,0l0,0h-0.1h-0.1c-0.1,0-0.2,0-0.3,0.1c-0.1,0.1-0.2,0.1-0.3,0.2
			c-0.1,0.1-0.2,0.1-0.3,0.2c-0.1,0-0.1,0.1-0.2,0.2C23.1,31,23.1,31,23,31.2l-0.2,0.2l-0.2,0.1l-0.4,0.2h-0.1
			c-0.1-0.1-0.2-0.1-0.3-0.1c-0.1,0-0.2-0.1-0.4,0c-0.1,0-0.1,0-0.2,0s-0.2,0-0.3,0.1c-0.5-0.3-1-0.4-1.7-0.3
			c-0.4,0.1-0.7,0.1-1,0.3c0,0-0.1,0.1-0.2,0.1l-0.1-0.1c-0.1-0.1-0.3-0.1-0.5-0.2c-0.1,0-0.2,0-0.3,0c-0.1-0.1-0.3-0.2-0.4-0.2
			c-0.3-0.3-0.9-0.6-1.3-0.8c0,0-0.1,0-0.1-0.1c-0.1,0-0.1-0.1-0.2-0.1c-0.1-0.1-0.1-0.2-0.2-0.2c-0.1-0.1-0.3-0.1-0.5-0.2l0,0
			c-0.1-0.2-0.3-0.2-0.5-0.2c-0.1,0-0.2,0-0.2,0c-0.2,0-0.3,0-0.5,0.1c-0.1,0.1-0.2,0.1-0.4,0.2c-0.1,0.1-0.2,0.1-0.3,0.2
			c-0.1,0-0.1,0.1-0.2,0.1c-0.2,0.1-0.3,0.2-0.5,0.2c-0.1,0.1-0.2,0.1-0.4,0.2c-0.1,0.1-0.3,0.2-0.4,0.4c0,0.1-0.1,0.1-0.1,0.2
			c-0.1,0-0.3,0-0.4,0c-0.3,0-0.6,0-0.8,0.2l0,0c-0.1,0-0.1,0.1-0.2,0.1c0,0.3,0,0.4-0.2,0.4c-2.8-2.5-4.6-6-4.6-10
			c0-3.2,1.2-6.1,3.1-8.4v15.7h22.3C30.1,29.3,30.1,14,30.1,14z"/>
		<path class="st5" d="M4.1,22c0-3.6,1.4-6.8,3.7-9.3V8.1c-4.4,3.2-7.2,8.3-7.2,14c0,9.7,8.2,17.5,18.2,17.5
			C28.8,39.5,37,31.7,37,22c0-5.5-2.7-10.5-6.9-13.7v4.8c2.1,2.4,3.3,5.5,3.3,8.9c0,7.8-6.6,14.1-14.7,14.1
			C10.7,36.1,4.1,29.8,4.1,22z"/>
		<polygon class="st6" points="30.1,29.3 7.8,29.3 7.8,0.1 11,0.1 11,26.3 30.1,26.3 		"/>
		<path class="st7" d="M36.1,19.1l-2.3,0.5L33.7,19l1-0.2l-0.1-0.7l-1,0.2l-0.1-0.6l2.3-0.5l0.2,0.7l-1,0.3l0.1,0.6l1.1-0.2
			L36.1,19.1L36.1,19.1z M5.2,15l-1.5-0.8c0,0-0.3-0.1-0.5,0.2c0,0-0.2,0.4,0.1,0.6l1.5,0.8l-0.2,0.3L3,15.2c0,0-0.4-0.3-0.1-0.9
			c0,0,0.4-0.8,1.1-0.6l1.5,0.7L5.2,15L5.2,15z M2.3,28l-0.2-0.5l2.3-0.8l0.2,0.6L2.3,28L2.3,28z M2.3,25.5L2,25.3
			c0,0-0.5,0.6-0.2,1.1c0,0,0.3,0.6,1,0.5c0,0,0.4,0,0.5-0.7c0,0,0-0.5,0.3-0.5c0,0,0.2,0,0.3,0.2c0,0,0,0.4-0.2,0.5L4,26.6
			c0,0,0.3-0.3,0.3-0.7c0,0,0-0.7-0.7-0.8c0,0-0.7-0.2-0.9,0.6c0,0-0.1,0.7-0.4,0.6c0,0-0.4-0.2-0.2-0.5C2,25.8,2.2,25.6,2.3,25.5
			L2.3,25.5L2.3,25.5z M1.3,23.1l2.4-0.2l0.2,1c0,0,0,0.8-0.4,0.9c0,0-0.7,0.1-0.9-0.4l-0.9,0.7l-0.1-0.8l1.1-0.7c0,0,0,0.6,0.6,0.6
			c0,0,0.5,0,0.3-0.7l-2.1,0.2v-0.6H1.3z M1.5,22.7H1.2v-1.5l2.4,0.2l-0.1,1.4H3.2V22H2.5v0.7H2.2V22H1.4L1.5,22.7L1.5,22.7z
			 M3.8,19l-2.5,0.8L3.7,21v-0.3l-1.1-0.6l1.2-0.4V19L3.8,19z M3.9,19l-2.3-0.4l0.1-0.7L4,18.3L3.9,19L3.9,19z M4.1,17.9l0.1-0.4
			l-1.1-0.3l1.3-0.4l0.2-0.6l-2.3-0.7l-0.1,0.3l1.7,0.5l-2,0.6l-0.1,0.4L4.1,17.9L4.1,17.9z M3.1,29l1.5-0.7l0.1,0.3
			c0,0,0.2,0.6-0.5,0.8c0,0-0.7,0.3-1-0.1L3.1,29L3.1,29z M2.5,28.6l0.6,1.2c0.5,0.8,1.6,0.4,1.6,0.4c0.8-0.4,0.5-1.5,0.5-1.5
			l-0.5-1L2.5,28.6L2.5,28.6z M5.2,31.2l-0.3-0.4l0.8-0.2L5.2,31.2L5.2,31.2z M3.8,31.1l-0.2-0.3L6,30.2l0.4,0.5L5,32.8l-0.5-0.6
			l0.4-0.6L4.5,31L3.8,31.1L3.8,31.1z M6,33.2l0.2,0.2c0.6,0.5,1.2-0.2,1.2-0.2c0.4-0.5,0-1,0-1L7.1,32L6,33.2L6,33.2z M5.2,32.9
			l0.6,0.6c0.9,0.9,1.7,0.2,1.7,0.2C8.4,33,7.7,32,7.7,32l-0.9-0.9L5.2,32.9L5.2,32.9z M22.7,38.6l-0.6-2.2l0.6-0.2l0.9,1l0.1-1.3
			l0.7-0.2L25,38l-0.7,0.1L24,36.8l-0.3,1.5l-1-1.1l0.4,1.3L22.7,38.6L22.7,38.6z M30.9,34.5L29.2,33l1-1.1l0.2,0.2l-0.5,0.6
			l0.5,0.4l0.5-0.6l0.3,0.2l-0.5,0.6l0.5,0.4l0.6-0.7l0.2,0.2L30.9,34.5L30.9,34.5z M29.1,35.6l0.3-0.3c0.3-0.5-0.2-1.1-0.2-1.1
			c-0.4-0.4-0.9-0.2-0.9-0.2L28,34.3L29.1,35.6L29.1,35.6z M28.7,36.2l1-0.7c0.8-0.7,0.1-1.6,0.1-1.6c-0.7-0.8-1.6-0.2-1.6-0.2
			l-0.9,0.7L28.7,36.2L28.7,36.2z M25.6,36.8L25.5,36l0.6,0.6L25.6,36.8L25.6,36.8z M25.3,37.9l-0.2-2.4l0.6-0.3l1.8,1.8l-0.7,0.3
			l-0.5-0.5l-0.7,0.4l0.1,0.6L25.3,37.9L25.3,37.9z M9.6,35.1l-0.5-0.3l0.7-0.5L9.6,35.1L9.6,35.1z M8.3,35.5L8,35.2l2.1-1.4
			l0.5,0.3l-0.7,2.4l-0.6-0.4l0.2-0.7L8.8,35L8.3,35.5L8.3,35.5z M11.3,34.7L10.6,36c0,0-0.4,0.8,0.4,1.2c0,0,0.8,0.5,1.4-0.4
			l0.6-1.3l-0.3-0.2L12,36.7c0,0-0.3,0.5-0.7,0.3c0,0-0.3-0.3-0.1-0.8l0.6-1.2L11.3,34.7L11.3,34.7z M12.9,38l0.7-1.9L13,35.9
			l0.1-0.3l1.8,0.7l-0.1,0.3l-0.6-0.2l-0.7,1.9L12.9,38L12.9,38z M14.7,37.2c-0.2,0.6,0.2,1.3,0.8,1.5c0.7,0.2,1.3-0.2,1.5-0.8
			s-0.2-1.3-0.8-1.5C15.6,36.2,14.9,36.6,14.7,37.2L14.7,37.2z M15.4,37.4c0.1-0.5,0.5-0.8,0.8-0.8c0.3,0.1,0.4,0.6,0.3,1.1
			s-0.5,0.9-0.8,0.8C15.4,38.4,15.2,37.9,15.4,37.4L15.4,37.4z M17.4,38.9v-2.3h0.8l0.8,1.1v-1.1h0.3v2.2h-0.4l-1.2-1.6v1.7
			L17.4,38.9L17.4,38.9z M19.7,38c0.2,0.6,0.8,1,1.5,0.9c0.7-0.2,1-0.8,0.9-1.5c-0.2-0.6-0.8-1-1.5-0.9C20,36.7,19.6,37.4,19.7,38
			L19.7,38z M20.4,37.9c-0.1-0.5,0-1,0.3-1.1s0.6,0.3,0.8,0.8c0.1,0.5,0,1-0.3,1.1C20.9,38.7,20.5,38.4,20.4,37.9L20.4,37.9z
			 M32.6,29.7v-0.3c-0.8,0-1.1,0.7-1.1,0.7c-0.5,0.9,0.4,1.6,0.4,1.6c1,0.6,1.6-0.3,1.6-0.3c0.5-0.5,0.2-1.3,0.2-1.3l-0.4,0.1
			c0.4,0.5,0,1,0,1c-0.3,0.3-1.1-0.1-1.1-0.1c-0.5-0.3-0.5-0.7-0.5-0.7C31.8,29.8,32.6,29.7,32.6,29.7L32.6,29.7z M34.1,23.8v-0.6
			l1.7,0.1c0,0,0.3,0,0.3-0.4c0,0,0-0.4-0.4-0.4l-1.6-0.1v-0.3l1.7,0.1c0,0,0.8,0,0.7,0.9c0,0,0,0.8-0.7,0.8L34.1,23.8L34.1,23.8z
			 M35.9,26.5L33.6,26l0.1-0.7l0.9,0.2l0.1-0.7l-0.9-0.2l0.1-0.6l2.3,0.5L36.1,25l-1-0.2L35,25.5l1,0.2L35.9,26.5L35.9,26.5z
			 M35.5,27.6l0.2-0.6l-2.3-0.7l-0.2,0.6L35.5,27.6L35.5,27.6z M34.4,30l-2.1-1.1l0.3-0.6l0.9,0.4l0.3-0.6L33,27.6l0.3-0.6l2.1,1.1
			l-0.3,0.6l-0.9-0.5l-0.3,0.6l0.9,0.5L34.4,30L34.4,30z M33.5,14.5l-0.8,0.2l0.6-0.7L33.5,14.5L33.5,14.5z M34.8,14.6l-0.1-0.3
			l-0.8,0.2l-0.4-0.7l0.5-0.5l-0.3-0.7L32,14.4l0.4,0.7L34.8,14.6L34.8,14.6z M35.4,21.2l-0.8-0.1l0.8-0.4V21.2L35.4,21.2z
			 M36.6,21.7v-0.3l-0.8-0.1l-0.1-0.8l0.6-0.3l-0.1-0.7L34,20.6l0.1,0.8L36.6,21.7L36.6,21.7z M33.3,17.4l1.4-0.5
			c0.8-0.2,0.6-1.2,0.6-1.2c-0.2-0.9-1-0.7-1-0.7l-1.6,0.5l0.1,0.3l1.5-0.5c0.5-0.1,0.5,0.2,0.5,0.2c0.1,0.4-0.3,0.6-0.3,0.6
			l-1.4,0.5L33.3,17.4z"/>
		<path class="st2" d="M8.5,2.5v-1H10v0.4H8.7v0.6H8.5L8.5,2.5z M28.4,28.5v-1.4h0.8c0,0,0.5,0.1,0.5,0.5c0,0,0,0.3-0.3,0.3l0.4,0.6
			h-0.5L29,27.9v-0.1l0,0c0,0,0.2,0,0.2-0.3c0,0,0-0.3-0.2-0.3h-0.2v1.2L28.4,28.5L28.4,28.5z M8.5,18.6v-1H10V18H8.7v0.6H8.5
			L8.5,18.6z M9.2,18.7c0.4,0,0.8,0.3,0.8,0.8c0,0.4-0.3,0.8-0.8,0.8c-0.4,0-0.7-0.3-0.7-0.8S8.8,18.7,9.2,18.7L9.2,18.7z M9.2,19.1
			c-0.3,0-0.6,0.2-0.6,0.3c0,0.2,0.3,0.3,0.6,0.3s0.6-0.2,0.6-0.3C9.8,19.3,9.6,19.1,9.2,19.1L9.2,19.1z M9.1,21.9v-0.4H8.8
			c0,0-0.2-0.1-0.2-0.3c0,0,0.1-0.4,0.5-0.4c0,0,0.6,0,0.7,0.3c0,0,0.1,0.3-0.3,0.5l0.2,0.2c0,0,0.4-0.2,0.3-0.7c0,0,0-0.7-0.7-0.7
			c0,0-0.8,0-0.8,0.7c0,0-0.1,0.5,0.2,0.8l0,0H9.1L9.1,21.9z M8.5,22.1H10v0.8c0,0-0.1,0.5-0.6,0.4c0,0-0.3,0-0.3-0.3l-0.6,0.4v-0.5
			l0.7-0.3h0.1v0.1c0,0,0,0.2,0.3,0.2c0,0,0.3,0,0.3-0.2v-0.2H8.5V22.1L8.5,22.1z M9.1,24.2v-0.4L9.6,24L9.1,24.2L9.1,24.2z
			 M8.5,23.5v0.2l0.4,0.1v0.5l-0.4,0.2V25l1.5-0.6V24L8.5,23.5L8.5,23.5z M8.5,25.1H10v0.8c0,0-0.1,0.5-0.6,0.5c0,0-0.3,0-0.3-0.3
			l-0.6,0.4V26l0.7-0.3h0.1v0.1c0,0,0,0.2,0.3,0.2c0,0,0.3,0,0.3-0.2v-0.2H8.5V25.1L8.5,25.1z M10.5,28.5h-1v-1.4h0.4v1.2h0.6V28.5
			L10.5,28.5z M10.6,27.8c0-0.4,0.3-0.7,0.7-0.7s0.7,0.3,0.7,0.7c0,0.4-0.3,0.7-0.7,0.7C10.9,28.5,10.6,28.2,10.6,27.8L10.6,27.8z
			 M11,27.8c0,0.3,0.1,0.5,0.3,0.5s0.3-0.2,0.3-0.5s-0.1-0.6-0.3-0.6C11.2,27.3,11,27.5,11,27.8L11,27.8z M13.7,27.9h-0.3v0.3
			c0,0-0.1,0.2-0.3,0.2c0,0-0.4-0.1-0.4-0.5c0,0,0-0.5,0.3-0.6c0,0,0.3-0.1,0.5,0.2l0.2-0.1c0,0-0.2-0.3-0.6-0.3c0,0-0.7,0-0.7,0.7
			c0,0,0,0.7,0.7,0.7c0,0,0.5,0.1,0.7-0.2l0,0L13.7,27.9L13.7,27.9z M14,28.5v-1.4h0.8c0,0,0.5,0.1,0.5,0.5c0,0,0,0.3-0.3,0.3
			l0.4,0.6h-0.5l-0.3-0.6v-0.1h0.1c0,0,0.2,0,0.2-0.3c0,0,0-0.3-0.2-0.3h-0.2v1.2L14,28.5L14,28.5z M16,28h-0.4l0.2-0.5L16,28L16,28
			z M15.3,28.5h0.2l0.1-0.4H16l0.2,0.4h0.5l-0.6-1.4h-0.4L15.3,28.5L15.3,28.5z M16.9,28.5v-1.4h0.8c0,0,0.5,0.1,0.4,0.5
			c0,0,0,0.3-0.3,0.3l0.4,0.6h-0.5l-0.3-0.6v-0.1h0.1c0,0,0.2,0,0.2-0.3c0,0,0-0.3-0.2-0.3h-0.2v1.2L16.9,28.5L16.9,28.5z
			 M19.4,27.8v-0.4h0.1c0,0,0.3,0,0.2,0.2c0,0,0,0.2-0.2,0.2L19.4,27.8L19.4,27.8z M19,28.5h0.4V28h0.3c0.4,0,0.5-0.3,0.5-0.3
			c0.1-0.4-0.5-0.5-0.5-0.5H19V28.5L19,28.5z M21,28h-0.4l0.2-0.5L21,28L21,28z M20.2,28.5l0.4-1.4H21l0.6,1.4h-0.5L21,28.1h-0.4
			l-0.1,0.4H20.2L20.2,28.5z M21.8,28.5v-1.4h0.8c0,0,0.5,0.1,0.5,0.5c0,0,0,0.3-0.3,0.3l0.4,0.6h-0.5l-0.3-0.6v-0.1h0.1
			c0,0,0.2,0,0.2-0.3c0,0,0-0.3-0.2-0.3h-0.2v1.2L21.8,28.5L21.8,28.5z M23.9,28h-0.4l0.2-0.5L23.9,28L23.9,28z M23.1,28.5h0.2
			l0.1-0.4h0.4l0.2,0.4h0.5L24,27.1h-0.4L23.1,28.5L23.1,28.5z M25.7,28.3v-1H26c0,0,0.4,0.1,0.4,0.5c0,0,0,0.5-0.3,0.5H25.7
			L25.7,28.3z M25.4,28.5h0.7c0.6,0,0.7-0.6,0.7-0.6c0.1-0.7-0.7-0.8-0.7-0.8h-0.7V28.5L25.4,28.5z M27.6,28h-0.4l0.2-0.5L27.6,28
			L27.6,28z M26.9,28.5h0.2l0.1-0.4h0.4l0.2,0.4h0.5l-0.6-1.4h-0.4L26.9,28.5L26.9,28.5z M9,5.3L8.9,5.5c0,0-0.4-0.2-0.4-0.6
			c0,0-0.1-0.7,0.4-0.9c0,0,0.6-0.2,0.9,0.2c0,0,0.2,0.2,0.1,0.5c0,0,0,0.4-0.3,0.6l0,0c0,0,0.3-0.2,0.3-0.4c0,0,0-0.3-0.5-0.4
			c0,0-0.7,0-0.7,0.5C8.7,5,8.7,5.2,9,5.3L9,5.3L9,5.3z M9.3,11.4h0.5v0.2c0,0,0,0.3-0.3,0.2c0,0-0.2,0-0.2-0.2V11.4L9.3,11.4z
			 M8.5,11v0.4h0.6v0.3c0,0.4,0.4,0.5,0.4,0.5c0.4,0.1,0.6-0.5,0.6-0.5V11H8.5L8.5,11z M8.5,8.9H10v0.8c0,0-0.1,0.5-0.6,0.5
			c0,0-0.3,0-0.3-0.3l-0.6,0.4V9.6l0.7-0.3h0.1v0.1c0,0,0,0.2,0.3,0.2c0,0,0.3,0,0.3-0.2V9.3H8.5V8.9L8.5,8.9z M8.5,13.9H10v0.8
			c0,0-0.1,0.5-0.6,0.5c0,0-0.3,0-0.3-0.3l-0.6,0.4v-0.5l0.7-0.3h0.1v0.1c0,0,0,0.2,0.3,0.2c0,0,0.3,0,0.3-0.2v-0.2H8.5V13.9
			L8.5,13.9z M9.1,8V7.6l0.5,0.2L9.1,8L9.1,8z M8.5,7.2v0.2l0.4,0.1V8L8.5,8.2v0.5L10,8.1V7.7L8.5,7.2L8.5,7.2z M9.1,13v-0.4
			l0.5,0.2L9.1,13L9.1,13z M8.5,12.2l1.5,0.5v0.4l-1.5,0.6v-0.5L8.9,13v-0.5l-0.4-0.1V12.2L8.5,12.2z M9.1,16v-0.4l0.5,0.2L9.1,16
			L9.1,16z M8.5,15.2v0.2l0.4,0.1V16l-0.4,0.2v0.5l1.5-0.6v-0.4L8.5,15.2L8.5,15.2z M10,7H8.5V6.6h0.7V6.2H8.5V5.8H10v0.4H9.4v0.4
			H10V7L10,7z M10,3.8H8.8c0,0-0.3-0.1-0.3-0.4V3.1c0,0,0-0.4,0.4-0.4H10v0.4H8.9c0,0-0.2,0-0.2,0.3c0,0,0,0.2,0.3,0.3h1V3.8z"/>
		<polygon class="st7" points="11.8,10.3 14.6,17.1 15.4,15.5 17,21 18.2,19.5 19.5,23.9 20.2,22.6 22.1,24.9 20.5,19.4 20,21.1 
			18.4,15.8 17.5,17.2 16.4,11.9 15,14.2 13.5,9 		"/>
		<polygon class="st2" points="17.3,8.8 29.6,0.3 18.2,10 20.3,12.8 29.7,0.6 21.2,14.1 23.3,17 30.1,0 15.7,6.6 		"/>
	</g>
</g>
<g id="Layer_1_2_">
	<path class="st8" d="M176.4,5.6c0,0.1,0,0.1-0.1,0.1c-0.5,0.1-0.8,0.1-0.9,0.3c-0.2,0.1-0.3,0.3-0.3,0.7l-0.1,6.5
		c0,0.1,0,0.1-0.1,0.1c0,0-0.1,0-0.2-0.1L169,6.7l-0.1,5.1v0.1c0,0.3,0.1,0.5,0.3,0.6s0.5,0.2,1,0.3c0.1,0,0.1,0.1,0.1,0.1
		c0,0.1,0,0.2-0.1,0.2c-0.2,0-0.5,0-0.8,0s-0.6,0-0.7,0c-0.2,0-0.4,0-0.7,0s-0.5,0-0.7,0c-0.1,0-0.1-0.1-0.1-0.2
		c0-0.1,0-0.1,0.1-0.1c0.5-0.1,0.8-0.1,0.9-0.3c0.2-0.1,0.3-0.3,0.3-0.7l0.2-5.2l0,0c0-0.3-0.1-0.5-0.3-0.6s-0.5-0.2-1-0.3
		c-0.1,0-0.1-0.1-0.1-0.2s0-0.2,0.1-0.2s0.3,0,0.5,0s0.4,0,0.5,0s0.3,0,0.5,0s0.3,0,0.5,0l5.3,6V6.6c0-0.3-0.1-0.5-0.3-0.7
		c-0.2-0.1-0.5-0.2-1-0.3c-0.1,0-0.1-0.1-0.1-0.1c0-0.1,0-0.2,0.1-0.2c0.2,0,0.5,0,0.8,0s0.6,0,0.7,0c0.2,0,0.4,0,0.7,0s0.5,0,0.7,0
		C176.4,5.4,176.4,5.5,176.4,5.6z"/>
	<path class="st8" d="M164.2,3.3c0,0.1,0,0.2-0.1,0.2l-1.9,1.2h-0.1c0,0-0.1,0-0.1-0.1s-0.1-0.1-0.1-0.1s0-0.1,0.1-0.1l1.7-1.6
		l0.1-0.1c0.1,0,0.2,0.1,0.3,0.2C164.1,3.1,164.2,3.2,164.2,3.3z"/>
	<path class="st8" d="M166.4,9.3c0,1.2-0.4,2.1-1.1,2.9c-0.8,0.7-1.7,1.1-3,1.1c-1.2,0-2.2-0.4-2.9-1.1c-0.8-0.7-1.1-1.7-1.1-2.9
		s0.4-2.1,1.1-2.9c0.8-0.8,1.7-1.1,2.9-1.1s2.2,0.4,2.9,1.1C166.1,7.2,166.4,8.1,166.4,9.3L166.4,9.3z M165.2,9.3
		c0-1.1-0.3-2-0.8-2.7s-1.2-1-2.1-1c-0.9,0-1.6,0.3-2.1,1s-0.8,1.6-0.8,2.7s0.3,2,0.8,2.6c0.5,0.7,1.2,1,2.1,1c0.9,0,1.6-0.3,2.1-1
		C164.9,11.3,165.2,10.4,165.2,9.3z"/>
	<path class="st8" d="M157.8,7.2c0,0.1-0.1,0.1-0.2,0.1c-0.1,0-0.1,0-0.1-0.1c-0.2-0.5-0.4-0.9-0.7-1.1s-0.7-0.3-1.3-0.3H155
		c-0.2,0-0.3,0-0.4,0.1c-0.1,0.1-0.1,0.2-0.1,0.3v5.6c0,0.3,0,0.4,0.1,0.5s0.2,0.2,0.3,0.2c0.2,0.1,0.4,0.1,0.7,0.1
		c0.1,0,0.1,0.1,0.1,0.1c0,0.1,0,0.2-0.1,0.2c-0.2,0-0.5,0-0.9,0c-0.3,0-0.6,0-0.8,0s-0.5,0-0.8,0s-0.6,0-0.9,0
		c-0.1,0-0.1-0.1-0.1-0.2c0-0.1,0-0.1,0.1-0.1c0.4-0.1,0.8-0.1,0.9-0.2c0.2-0.1,0.2-0.3,0.2-0.7V6.2c0-0.2,0-0.3-0.1-0.3
		c-0.1-0.1-0.2-0.1-0.4-0.1h-0.4c-0.5,0-1,0.1-1.4,0.4s-0.7,0.6-0.8,1c0,0.1-0.1,0.1-0.1,0.1c-0.1,0-0.2,0-0.2-0.1
		c0.2-0.6,0.4-1.2,0.6-1.9c0.5,0.1,1.7,0.2,3.4,0.2c1.8,0,3-0.1,3.5-0.2C157.5,5.8,157.6,6.4,157.8,7.2z"/>
	<path class="st8" d="M149.8,5.6c0,0.1,0,0.2-0.1,0.2c-0.5,0.1-0.8,0.1-0.9,0.3c-0.2,0.1-0.2,0.3-0.2,0.7v3.5c0,1-0.2,1.8-0.7,2.3
		c-0.5,0.6-1.1,0.8-2,0.8c-1,0-1.8-0.3-2.3-0.8c-0.6-0.5-0.8-1.3-0.8-2.2V6.7c0-0.3,0-0.4-0.1-0.5s-0.2-0.2-0.3-0.3
		s-0.4-0.1-0.7-0.1c-0.1,0-0.1-0.1-0.1-0.2s0-0.2,0.1-0.2c0.2,0,0.5,0,0.9,0c0.3,0,0.6,0,0.8,0s0.5,0,0.8,0s0.6,0,0.9,0
		c0.1,0,0.1,0.1,0.1,0.2s0,0.2-0.1,0.2c-0.3,0-0.6,0.1-0.7,0.1c-0.2,0.1-0.3,0.1-0.3,0.2C144,6.2,144,6.4,144,6.6v3.5
		c0,0.9,0.2,1.6,0.5,2s0.9,0.6,1.7,0.6c1.5,0,2.2-0.9,2.2-2.8V6.7c0-0.3-0.1-0.6-0.2-0.7c-0.2-0.1-0.5-0.2-0.9-0.3
		c-0.1,0-0.1-0.1-0.1-0.2s0-0.2,0.1-0.2c0.2,0,0.4,0,0.7,0s0.5,0,0.7,0s0.4,0,0.7,0s0.5,0,0.7,0C149.7,5.4,149.8,5.5,149.8,5.6z"/>
	<path class="st8" d="M141.2,12.9c0,0.1,0,0.2-0.1,0.2c-0.3,0-0.6,0-1,0c-0.3,0-0.6,0-0.8,0c-0.3,0-0.6,0-0.9,0c-0.4,0-0.7,0-1,0
		c-0.1,0-0.1-0.1-0.1-0.2c0-0.1,0-0.2,0.1-0.2c0.4,0,0.6-0.1,0.8-0.1c0.2-0.1,0.2-0.2,0.2-0.4c0-0.1,0-0.3-0.1-0.5l-0.7-2.1H135
		l-0.7,1.9c-0.1,0.3-0.1,0.5-0.1,0.6c0,0.4,0.3,0.6,1,0.6c0.1,0,0.1,0.1,0.1,0.2c0,0.1,0,0.2-0.1,0.2c-0.3,0-0.5,0-0.8,0
		s-0.5,0-0.8,0c-0.2,0-0.4,0-0.7,0s-0.5,0-0.7,0c-0.1,0-0.1-0.1-0.1-0.2c0-0.1,0-0.2,0.1-0.2c0.3,0,0.6-0.1,0.8-0.3s0.4-0.5,0.6-1
		l2.9-7.2c0-0.1,0.1-0.1,0.2-0.1c0.1,0,0.2,0,0.2,0.1l2.6,7.2c0.1,0.4,0.3,0.7,0.6,0.9c0.2,0.2,0.6,0.3,1,0.4
		C141.2,12.8,141.2,12.8,141.2,12.9L141.2,12.9z M137.4,9.2L136.3,6l-1.2,3.2H137.4z"/>
	<path class="st8" d="M128.8,9.3c0,1.1-0.4,2.1-1.1,2.8c-0.8,0.7-1.8,1-3.1,1c-0.2,0-0.5,0-1,0s-0.8,0-1,0c-0.7,0-1.4,0-2,0
		c-0.1,0-0.1-0.1-0.1-0.2c0-0.1,0-0.1,0.1-0.1c0.3,0,0.5-0.1,0.7-0.1c0.2-0.1,0.3-0.1,0.3-0.2c0.1-0.1,0.1-0.3,0.1-0.5V6.7
		c0-0.3,0-0.4-0.1-0.5s-0.2-0.2-0.3-0.3c-0.2-0.1-0.4-0.1-0.7-0.1c-0.1,0-0.1-0.1-0.1-0.2s0-0.2,0.1-0.2c0.4,0,1.1,0,2,0
		c0.2,0,0.5,0,1,0s0.8,0,1,0c1.3,0,2.3,0.4,3.1,1.1C128.4,7.2,128.8,8.2,128.8,9.3L128.8,9.3z M127.5,9.3c0-1-0.3-1.8-0.9-2.5
		s-1.3-1-2.2-1l0,0h-1c-0.4,0-0.7,0.2-0.7,0.6V12c0,0.4,0.2,0.6,0.7,0.6h1c0.9,0,1.6-0.3,2.2-1C127.3,11.1,127.5,10.3,127.5,9.3z"/>
	<path class="st8" d="M120.1,13c0,0.1,0,0.2-0.1,0.2c-0.3,0-0.5,0-0.9,0c-0.3,0-0.5,0-0.7,0s-0.5,0-0.8,0c-0.4,0-0.7,0-0.9,0
		c-0.1,0-0.1-0.1-0.1-0.2c0-0.1,0-0.2,0.1-0.2c0.3,0,0.6-0.1,0.7-0.1c0.1-0.1,0.2-0.2,0.2-0.3s0-0.2-0.1-0.5l-0.6-1.9h-2.3l-0.6,1.7
		c-0.1,0.2-0.1,0.4-0.1,0.5c0,0.3,0.3,0.5,0.9,0.5c0,0,0.1,0.1,0.1,0.2c0,0.1,0,0.2-0.1,0.2c-0.2,0-0.5,0-0.7,0c-0.3,0-0.5,0-0.7,0
		s-0.4,0-0.6,0c-0.3,0-0.5,0-0.6,0s-0.1,0-0.1-0.1s0-0.2,0.1-0.2c0.3,0,0.6-0.1,0.7-0.3c0.2-0.1,0.4-0.4,0.6-0.9l2.6-6.4
		c0-0.1,0.1-0.1,0.2-0.1s0.1,0,0.2,0.1l2.3,6.4c0.1,0.4,0.3,0.6,0.5,0.8s0.5,0.3,0.9,0.3C120.1,12.8,120.1,12.9,120.1,13L120.1,13z
		 M116.7,9.7l-1-2.8l-1.1,2.8H116.7z"/>
	<path class="st8" d="M111.5,9.3c0,1.1-0.4,2.1-1.1,2.8c-0.8,0.7-1.8,1-3.1,1c-0.2,0-0.5,0-1,0s-0.8,0-1,0c-0.7,0-1.4,0-2,0
		c-0.1,0-0.1-0.1-0.1-0.2c0-0.1,0-0.1,0.1-0.1c0.3,0,0.5-0.1,0.7-0.1c0.2-0.1,0.3-0.1,0.3-0.2c0.1-0.1,0.1-0.3,0.1-0.5V6.7
		c0-0.3,0-0.4-0.1-0.5S104.1,6,104,5.9c-0.2-0.1-0.4-0.1-0.7-0.1c-0.1,0-0.1-0.1-0.1-0.2s0-0.2,0.1-0.2c0.4,0,1.1,0,2,0
		c0.2,0,0.5,0,1,0s0.8,0,1,0c1.3,0,2.3,0.4,3.1,1.1C111.1,7.2,111.5,8.2,111.5,9.3L111.5,9.3z M110.3,9.3c0-1-0.3-1.8-0.9-2.5
		s-1.3-1-2.2-1l0,0h-1c-0.4,0-0.7,0.2-0.7,0.6V12c0,0.4,0.2,0.6,0.7,0.6h1c0.9,0,1.6-0.3,2.2-1C110,11.1,110.3,10.3,110.3,9.3z"/>
	<path class="st8" d="M102.2,13c0,0.1,0,0.2-0.1,0.2c-0.2,0-0.5,0-0.9,0c-0.3,0-0.6,0-0.8,0c-0.2,0-0.5,0-0.8,0s-0.6,0-0.9,0
		c-0.1,0-0.1-0.1-0.1-0.2c0-0.1,0-0.1,0.1-0.1c0.4-0.1,0.8-0.1,0.9-0.2c0.2-0.1,0.2-0.3,0.2-0.7V6.7c0-0.3,0-0.4-0.1-0.5
		S99.5,6,99.4,6c-0.2-0.1-0.4-0.1-0.7-0.1c-0.1,0-0.1-0.1-0.1-0.2s0-0.2,0.1-0.2c0.3,0,0.5,0,0.9,0c0.3,0,0.6,0,0.8,0
		c0.2,0,0.5,0,0.8,0s0.6,0,0.9,0c0.1,0,0.1,0.1,0.1,0.2s0,0.2-0.1,0.2c-0.3,0-0.5,0.1-0.7,0.1c-0.2,0.1-0.3,0.1-0.3,0.2
		C101,6.3,101,6.5,101,6.7v5.2c0,0.3,0,0.4,0.1,0.5s0.2,0.2,0.3,0.2c0.2,0.1,0.4,0.1,0.7,0.1C102.1,12.8,102.2,12.9,102.2,13z"/>
	<path class="st8" d="M97.5,10.9c0,0.7-0.2,1.3-0.7,1.8c-0.4,0.4-1,0.7-1.8,0.7c-0.3,0-0.7-0.1-1.2-0.2c-0.4-0.1-0.8-0.2-1-0.2
		c0-0.6-0.1-1.3-0.1-1.9c0-0.1,0.1-0.1,0.2-0.1s0.1,0,0.1,0.1c0.2,0.7,0.5,1.2,0.8,1.5s0.7,0.4,1.3,0.4c0.4,0,0.8-0.1,1-0.4
		c0.2-0.3,0.4-0.6,0.4-1.1c0-0.3-0.1-0.6-0.3-0.8c-0.2-0.3-0.7-0.6-1.4-1c-0.8-0.5-1.3-0.9-1.6-1.2c-0.2-0.3-0.4-0.7-0.4-1.1
		c0-0.6,0.2-1.1,0.7-1.5c0.4-0.4,1-0.6,1.7-0.6c0.3,0,0.6,0,0.9,0.1s0.6,0.1,0.8,0.1c0,0.7,0.1,1.2,0.2,1.7c0,0.1,0,0.1-0.1,0.1
		s-0.2,0-0.2-0.1c-0.1-0.6-0.3-1-0.6-1.2c-0.2-0.2-0.6-0.4-1-0.4s-0.7,0.1-1,0.4c-0.2,0.2-0.4,0.6-0.4,1c0,0.3,0.1,0.5,0.3,0.8
		c0.2,0.2,0.7,0.6,1.3,1c0.8,0.5,1.3,0.9,1.6,1.2C97.4,10.2,97.5,10.5,97.5,10.9z"/>
	<path class="st8" d="M92.2,13c0,0.1,0,0.2-0.1,0.2s-0.4,0-0.7,0c-0.2,0-0.4,0-0.4,0c-0.1,0-0.3,0-0.5,0s-0.4,0-0.5,0l-1.7-2.7
		c-0.2-0.4-0.4-0.6-0.6-0.7c-0.1-0.1-0.4-0.2-0.9-0.2V12c0,0.3,0,0.4,0.1,0.5s0.2,0.2,0.3,0.2c0.2,0.1,0.4,0.1,0.7,0.1
		c0.1,0,0.1,0.1,0.1,0.1c0,0.1,0,0.2-0.1,0.2c-0.2,0-0.5,0-0.9,0c-0.3,0-0.6,0-0.8,0c-0.2,0-0.5,0-0.8,0s-0.6,0-0.9,0
		c-0.1,0-0.1-0.1-0.1-0.2c0-0.1,0-0.1,0.1-0.1c0.3,0,0.5-0.1,0.7-0.1c0.2-0.1,0.3-0.1,0.3-0.2c0.1-0.1,0.1-0.3,0.1-0.5V6.7
		c0-0.3,0-0.4-0.1-0.5S85.3,6,85.2,5.9c-0.2-0.1-0.4-0.1-0.7-0.1c-0.1,0-0.1-0.1-0.1-0.2s0-0.2,0.1-0.2c0.2,0,0.5,0,0.9,0
		c0.3,0,0.6,0,0.8,0c0.2,0,0.5,0,0.8,0s0.6,0,0.9,0c0.8,0,1.5,0.2,1.9,0.5c0.5,0.3,0.7,0.8,0.7,1.5c0,0.4-0.1,0.8-0.4,1.1
		s-0.7,0.6-1.2,0.8l1.7,2.8c0.1,0.2,0.3,0.4,0.6,0.5c0.2,0.1,0.5,0.2,0.9,0.2C92.2,12.8,92.2,12.9,92.2,13L92.2,13z M89.4,7.4
		c0-1.1-0.5-1.6-1.4-1.6c-0.3,0-0.5,0-0.7,0.1C87.1,5.9,87,6,87,6.1c-0.1,0.1-0.1,0.3-0.1,0.6v2.5c0.2,0,0.5,0,0.8,0
		c0.6,0,1-0.1,1.3-0.4C89.3,8.5,89.4,8,89.4,7.4z"/>
	<path class="st8" d="M84.1,11.3c-0.3,0.6-0.5,1.2-0.7,1.8c-1.4,0-2.4-0.1-3-0.1s-1.6,0-3,0.1c-0.1,0-0.1-0.1-0.1-0.2
		c0-0.1,0-0.1,0.1-0.1c0.3,0,0.5-0.1,0.7-0.1c0.2-0.1,0.3-0.1,0.3-0.2c0.1-0.1,0.1-0.3,0.1-0.5V6.7c0-0.3,0-0.4-0.1-0.5
		S78.2,6,78.1,5.9c-0.2-0.1-0.4-0.1-0.7-0.1c-0.1,0-0.1-0.1-0.1-0.2s0-0.2,0.1-0.2c0.9,0,1.9,0.1,2.9,0.1s1.9,0,2.9-0.1
		c0.1,0.6,0.2,1.1,0.4,1.7c0,0.1-0.1,0.1-0.2,0.1s-0.1,0-0.1-0.1c-0.3-0.9-0.9-1.3-1.8-1.3h-1.1c-0.4,0-0.6,0.2-0.6,0.7V9h1.4
		c0.4,0,0.6-0.1,0.8-0.3c0.1-0.2,0.2-0.5,0.3-0.9c0-0.1,0.1-0.1,0.2-0.1s0.2,0,0.2,0.1c0,0.2,0,0.4,0,0.7s0,0.5,0,0.7s0,0.4,0,0.7
		s0,0.5,0,0.7c0,0.1-0.1,0.1-0.2,0.1s-0.2,0-0.2-0.1c-0.1-0.5-0.2-0.8-0.3-0.9c-0.1-0.2-0.4-0.3-0.7-0.3h-1.4V12
		c0,0.4,0.2,0.7,0.6,0.7h1.2c0.4,0,0.9-0.1,1.3-0.4c0.4-0.3,0.7-0.6,1-1.1c0,0,0,0,0.1,0s0.1,0,0.1,0C84,11.2,84.1,11.2,84.1,11.3z"
		/>
	<path class="st8" d="M77,5.5c0,0.1,0,0.2-0.1,0.2c-0.3,0-0.6,0.1-0.7,0.2C76,6,75.8,6.3,75.6,6.8l-2.8,6.4c0,0.1-0.1,0.1-0.2,0.1
		s-0.1,0-0.1-0.1L70,6.8c-0.1-0.4-0.2-0.6-0.3-0.7c-0.1-0.1-0.2-0.2-0.4-0.3c-0.2-0.1-0.4-0.1-0.7-0.1c0,0,0,0-0.1,0V5.6
		c0-0.1,0-0.2,0.1-0.2c0.2,0,0.5,0,0.8,0s0.5,0,0.8,0c0.2,0,0.5,0,0.8,0s0.6,0,0.9,0C72,5.4,72,5.5,72,5.6s0,0.2-0.1,0.2
		c-0.3,0-0.6,0.1-0.7,0.1C71,5.9,71,6,71,6.2c0,0.1,0,0.3,0.1,0.5l1.9,5l2-4.9c0.1-0.2,0.1-0.4,0.1-0.5c0-0.4-0.3-0.6-1-0.6
		c0,0-0.1-0.1-0.1-0.2s0-0.2,0.1-0.2c0.2,0,0.4,0,0.7,0c0.3,0,0.6,0,0.8,0c0.2,0,0.4,0,0.6,0c0.3,0,0.5,0,0.7,0
		C77,5.4,77,5.4,77,5.5z"/>
	<path class="st8" d="M67.8,13c0,0.1,0,0.2-0.1,0.2c-0.2,0-0.5,0-0.9,0c-0.3,0-0.6,0-0.8,0c-0.2,0-0.5,0-0.8,0s-0.6,0-0.9,0
		c-0.1,0-0.1-0.1-0.1-0.2c0-0.1,0-0.1,0.1-0.1c0.4-0.1,0.8-0.1,0.9-0.2c0.2-0.1,0.2-0.3,0.2-0.7V6.7c0-0.3,0-0.4-0.1-0.5
		c0-0.2-0.1-0.3-0.3-0.3c-0.2-0.1-0.4-0.1-0.7-0.1c-0.1,0-0.1-0.1-0.1-0.2s0-0.2,0.1-0.2c0.3,0,0.5,0,0.9,0c0.3,0,0.6,0,0.8,0
		c0.2,0,0.5,0,0.8,0s0.6,0,0.9,0c0.1,0,0.1,0.1,0.1,0.2s0,0.2-0.1,0.2c-0.3,0-0.5,0.1-0.7,0.1C66.8,6,66.7,6,66.7,6.1
		c-0.1,0.1-0.1,0.3-0.1,0.5v5.2c0,0.3,0,0.4,0.1,0.5s0.2,0.2,0.3,0.2c0.2,0.1,0.4,0.1,0.7,0.1C67.8,12.8,67.8,12.9,67.8,13z"/>
	<path class="st8" d="M63.5,5.6C63.5,5.7,63.5,5.7,63.5,5.6c-0.5,0.2-0.8,0.2-1,0.4c-0.2,0.1-0.3,0.3-0.3,0.7l-0.1,6.5
		c0,0.1,0,0.1-0.1,0.1c0,0-0.1,0-0.2-0.1l-5.7-6.5L56,11.9V12c0,0.3,0.1,0.5,0.3,0.6s0.5,0.2,1,0.3c0.1,0,0.1,0.1,0.1,0.1
		c0,0.1,0,0.2-0.1,0.2c-0.2,0-0.5,0-0.8,0s-0.6,0-0.7,0c-0.2,0-0.4,0-0.7,0s-0.5,0-0.7,0c-0.1,0-0.1-0.1-0.1-0.2
		c0-0.1,0-0.1,0.1-0.1c0.5-0.1,0.8-0.1,0.9-0.3c0.2-0.1,0.3-0.3,0.3-0.7l0.2-5.2l0,0c0-0.3-0.1-0.5-0.3-0.6s-0.5-0.2-1-0.3
		c-0.1,0-0.1-0.1-0.1-0.2s0-0.2,0.1-0.2s0.3,0,0.5,0s0.4,0,0.5,0s0.3,0,0.5,0s0.3,0,0.5,0l5.3,6V6.6c0-0.3-0.1-0.5-0.3-0.7
		c-0.2-0.1-0.5-0.2-1-0.3c-0.1,0-0.1-0.1-0.1-0.1c0-0.1,0-0.2,0.1-0.2c0.2,0,0.5,0,0.8,0s0.6,0,0.7,0c0.2,0,0.4,0,0.7,0s0.5,0,0.7,0
		C63.5,5.4,63.5,5.5,63.5,5.6z"/>
	<path class="st8" d="M53.9,4.6c0,0.1,0,0.2-0.1,0.2c-0.5,0.1-0.9,0.2-1.1,0.3c-0.2,0.1-0.3,0.4-0.3,0.8v3.9c0,1.1-0.3,2-0.8,2.6
		c-0.5,0.6-1.3,0.9-2.3,0.9c-1.1,0-2-0.3-2.6-0.9c-0.6-0.6-0.9-1.4-0.9-2.5V5.8c0-0.3,0-0.5-0.1-0.6S45.5,5,45.3,4.9
		c-0.2-0.1-0.5-0.1-0.8-0.2c-0.1,0-0.1-0.1-0.1-0.2s0-0.2,0.1-0.2c0.3,0,0.6,0,1,0s0.7,0,0.9,0c0.3,0,0.6,0,0.9,0c0.4,0,0.7,0,1,0
		c0.1,0,0.1,0.1,0.1,0.2s0,0.2-0.1,0.2c-0.4,0-0.6,0.1-0.8,0.2s-0.3,0.2-0.4,0.3C47,5.3,47,5.5,47,5.8v4c0,1,0.2,1.8,0.6,2.3
		c0.4,0.5,1,0.7,1.9,0.7c1.6,0,2.5-1,2.5-3.1V5.8c0-0.4-0.1-0.6-0.3-0.8c-0.2-0.1-0.5-0.2-1-0.3c-0.1,0-0.1-0.1-0.1-0.2
		s0-0.2,0.1-0.2c0.2,0,0.4,0,0.8,0c0.3,0,0.6,0,0.8,0s0.5,0,0.8,0s0.6,0,0.8,0C53.8,4.4,53.9,4.5,53.9,4.6z"/>
	<path class="st8" d="M223.6,11.3c-0.3,0.6-0.5,1.2-0.7,1.8c-1.4,0-2.4-0.1-3-0.1s-1.6,0-3,0.1c-0.1,0-0.1-0.1-0.1-0.2
		c0-0.1,0-0.1,0.1-0.1c0.3,0,0.5-0.1,0.7-0.1c0.2-0.1,0.3-0.1,0.3-0.2c0.1-0.1,0.1-0.3,0.1-0.5V6.7c0-0.3,0-0.4-0.1-0.5
		s-0.2-0.2-0.3-0.3c-0.2-0.1-0.4-0.1-0.7-0.1c-0.1,0-0.1-0.1-0.1-0.2s0-0.2,0.1-0.2c0.9,0,1.9,0.1,2.9,0.1s1.9,0,2.9-0.1
		c0.1,0.6,0.2,1.1,0.4,1.7c0,0.1-0.1,0.1-0.2,0.1c-0.1,0-0.1,0-0.1-0.1c-0.3-0.9-0.9-1.3-1.8-1.3h-1.1c-0.4,0-0.6,0.2-0.6,0.7V9h1.4
		c0.4,0,0.6-0.1,0.8-0.3c0.1-0.2,0.2-0.5,0.3-0.9c0-0.1,0.1-0.1,0.2-0.1c0.1,0,0.2,0,0.2,0.1c0,0.2,0,0.4,0,0.7s0,0.5,0,0.7
		s0,0.4,0,0.7s0,0.5,0,0.7c0,0.1-0.1,0.1-0.2,0.1c-0.1,0-0.2,0-0.2-0.1c-0.1-0.5-0.2-0.8-0.3-0.9c-0.1-0.2-0.4-0.3-0.7-0.3h-1.4V12
		c0,0.4,0.2,0.7,0.6,0.7h1.2c0.4,0,0.9-0.1,1.3-0.4c0.4-0.3,0.7-0.6,1-1.1c0,0,0,0,0.1,0s0.1,0,0.1,0
		C223.5,11.2,223.6,11.2,223.6,11.3z"/>
	<path class="st8" d="M216,9.3c0,1.1-0.4,2.1-1.1,2.8c-0.8,0.7-1.8,1-3.1,1c-0.2,0-0.5,0-1,0s-0.8,0-1,0c-0.7,0-1.4,0-2,0
		c-0.1,0-0.1-0.1-0.1-0.2c0-0.1,0-0.1,0.1-0.1c0.3,0,0.5-0.1,0.7-0.1c0.2-0.1,0.3-0.1,0.3-0.2c0.1-0.1,0.1-0.3,0.1-0.5V6.7
		c0-0.3,0-0.4-0.1-0.5s-0.2-0.2-0.3-0.3c-0.2-0.1-0.4-0.1-0.7-0.1c-0.1,0-0.1-0.1-0.1-0.2s0-0.2,0.1-0.2c0.4,0,1.1,0,2,0
		c0.2,0,0.5,0,1,0s0.8,0,1,0c1.3,0,2.3,0.4,3.1,1.1C215.6,7.2,216,8.2,216,9.3L216,9.3z M214.7,9.3c0-1-0.3-1.8-0.9-2.5
		c-0.6-0.7-1.3-1-2.2-1l0,0h-1c-0.4,0-0.7,0.2-0.7,0.6V12c0,0.4,0.2,0.6,0.7,0.6h1c0.9,0,1.6-0.3,2.2-1
		C214.4,11.1,214.7,10.3,214.7,9.3z"/>
	<path class="st8" d="M204.5,13c0,0.1,0,0.2-0.1,0.2c-0.3,0-0.5,0-0.9,0c-0.3,0-0.5,0-0.7,0s-0.5,0-0.8,0c-0.4,0-0.7,0-0.9,0
		c-0.1,0-0.1-0.1-0.1-0.2c0-0.1,0-0.2,0.1-0.2c0.3,0,0.6-0.1,0.7-0.1c0.1-0.1,0.2-0.2,0.2-0.3s0-0.2-0.1-0.5l-0.6-1.9H199l-0.6,1.7
		c-0.1,0.2-0.1,0.4-0.1,0.5c0,0.3,0.3,0.5,0.9,0.5c0,0,0.1,0.1,0.1,0.2c0,0.1,0,0.2-0.1,0.2c-0.2,0-0.5,0-0.7,0c-0.3,0-0.5,0-0.7,0
		s-0.4,0-0.6,0c-0.3,0-0.5,0-0.6,0s-0.1,0-0.1-0.1s0-0.2,0.1-0.2c0.3,0,0.6-0.1,0.7-0.3c0.2-0.1,0.4-0.4,0.6-0.9l2.6-6.4
		c0-0.1,0.1-0.1,0.2-0.1c0.1,0,0.1,0,0.2,0.1l2.3,6.4c0.1,0.4,0.3,0.6,0.5,0.8s0.5,0.3,0.9,0.3C204.5,12.8,204.5,12.9,204.5,13
		L204.5,13z M201.2,9.7l-1-2.8l-1.1,2.8H201.2z"/>
	<path class="st8" d="M196.2,13c0,0.1,0,0.2-0.1,0.2c-0.2,0-0.5,0-0.9,0c-0.3,0-0.6,0-0.8,0s-0.5,0-0.8,0s-0.6,0-0.9,0
		c-0.1,0-0.1-0.1-0.1-0.2c0-0.1,0-0.1,0.1-0.1c0.4-0.1,0.7-0.1,0.9-0.2c0.2-0.1,0.2-0.3,0.2-0.6V12l-0.2-5.4l-2.7,6.7
		c0,0.1-0.1,0.1-0.2,0.1c-0.1,0-0.1,0-0.1-0.1L188,6.8l-0.4,5.1c0,0.1,0,0.1,0,0.2c0,0.2,0.1,0.4,0.3,0.5s0.5,0.2,0.9,0.2
		c0.1,0,0.1,0.1,0.1,0.2c0,0.1,0,0.2-0.1,0.2c-0.2,0-0.5,0-0.8,0s-0.6,0-0.7,0c-0.2,0-0.4,0-0.8,0c-0.3,0-0.5,0-0.7,0
		c-0.1,0-0.1-0.1-0.1-0.2c0-0.1,0-0.1,0.1-0.1c0.5-0.1,0.8-0.1,1-0.3c0.2-0.1,0.3-0.3,0.3-0.7l0.6-5.2c0-0.1,0-0.1,0-0.2
		c0-0.2-0.1-0.4-0.3-0.5s-0.5-0.2-0.9-0.2c-0.1,0-0.1-0.1-0.1-0.2V5.5c0,0,0-0.1,0.1-0.1s0.3,0,0.6,0c0.2,0,0.4,0,0.5,0s0.3,0,0.6,0
		c0.2,0,0.4,0,0.6,0l2.4,6.2l2.5-6.2c0.1,0,0.3,0,0.6,0c0.2,0,0.4,0,0.5,0c0.2,0,0.3,0,0.6,0c0.2,0,0.4,0,0.6,0
		c0.1,0,0.1,0.1,0.1,0.2s0,0.2-0.1,0.2c-0.4,0.1-0.7,0.1-0.9,0.2s-0.2,0.3-0.2,0.6v0.1l0.3,5.2c0,0.3,0.1,0.4,0.1,0.5
		c0.1,0.1,0.2,0.2,0.4,0.2c0.2,0.1,0.4,0.1,0.7,0.1C196.1,12.8,196.2,12.9,196.2,13z"/>
	<path class="st8" d="M185.1,9.3c0,1.2-0.4,2.1-1.1,2.9c-0.8,0.7-1.7,1.1-3,1.1c-1.2,0-2.2-0.4-3-1.1c-0.8-0.7-1.1-1.7-1.1-2.9
		s0.4-2.1,1.1-2.9c0.8-0.8,1.7-1.1,2.9-1.1s2.2,0.4,2.9,1.1C184.7,7.2,185.1,8.1,185.1,9.3L185.1,9.3z M183.9,9.3
		c0-1.1-0.3-2-0.8-2.7s-1.2-1-2.1-1c-0.9,0-1.6,0.3-2.1,1s-0.8,1.6-0.8,2.7s0.3,2,0.8,2.6c0.5,0.7,1.2,1,2.1,1c0.9,0,1.6-0.3,2.1-1
		C183.6,11.3,183.9,10.4,183.9,9.3z"/>
	<path class="st8" d="M221.4,36c0,0.2-0.1,0.4-0.2,0.4c-0.6,0-1.3,0-2-0.1c-0.6-0.1-1.2-0.1-1.6-0.1c-0.5,0-1.2,0-1.9,0.1
		c-0.8,0.1-1.5,0.1-2.1,0.1c-0.1,0-0.2-0.1-0.2-0.4c0-0.2,0.1-0.4,0.2-0.4c0.8,0,1.3-0.1,1.6-0.3s0.5-0.4,0.5-0.8
		c0-0.2-0.1-0.6-0.3-1.1l-1.5-4.3h-5.3l-1.5,4c-0.2,0.5-0.3,0.9-0.3,1.2c0,0.8,0.7,1.2,2.1,1.2c0.1,0,0.2,0.1,0.2,0.4
		c0,0.2-0.1,0.4-0.2,0.4c-0.5,0-1.1,0-1.7-0.1c-0.6-0.1-1.1-0.1-1.6-0.1c-0.4,0-0.8,0-1.4,0.1c-0.6,0.1-1.1,0.1-1.5,0.1
		c-0.1,0-0.2-0.1-0.2-0.3s0.1-0.4,0.3-0.4c0.7-0.1,1.3-0.3,1.7-0.6s0.8-1,1.3-2l6-14.8c0.1-0.1,0.2-0.2,0.4-0.2s0.3,0.1,0.4,0.2
		l5.3,14.8c0.3,0.8,0.7,1.4,1.2,1.8c0.5,0.4,1.2,0.6,2,0.7C221.3,35.7,221.4,35.8,221.4,36L221.4,36z M213.6,28.4l-2.3-6.6l-2.4,6.6
		H213.6z"/>
	<path class="st8" d="M202.2,18.9c0,0.2-0.1,0.4-0.2,0.4c-1.1,0.1-1.8,0.3-2.2,0.6c-0.4,0.3-0.6,0.8-0.6,1.6v8.1
		c0,2.3-0.6,4.1-1.7,5.4c-1.1,1.3-2.7,1.9-4.7,1.9c-2.3,0-4.1-0.6-5.4-1.9c-1.3-1.2-1.9-2.9-1.9-5.1v-8.5c0-0.6-0.1-1-0.2-1.3
		c-0.1-0.2-0.4-0.4-0.8-0.6c-0.4-0.1-0.9-0.3-1.7-0.3c-0.1,0-0.2-0.1-0.2-0.4c0-0.2,0.1-0.4,0.2-0.4c0.6,0,1.3,0,2,0.1
		c0.8,0.1,1.4,0.1,1.9,0.1s1.2,0,1.9-0.1c0.8-0.1,1.5-0.1,2.1-0.1c0.1,0,0.2,0.1,0.2,0.4c0,0.2-0.1,0.4-0.2,0.4
		c-0.7,0.1-1.3,0.2-1.7,0.3c-0.4,0.1-0.6,0.3-0.8,0.6c-0.2,0.2-0.2,0.7-0.2,1.3v8.1c0,2.1,0.4,3.7,1.2,4.6c0.8,1,2.1,1.5,3.9,1.5
		c3.4,0,5.1-2.1,5.1-6.4v-7.8c0-0.8-0.2-1.3-0.6-1.6c-0.4-0.3-1.1-0.5-2.2-0.6c-0.1,0-0.2-0.1-0.2-0.4c0-0.2,0.1-0.4,0.2-0.4
		c0.4,0,0.9,0,1.6,0.1c0.7,0.1,1.2,0.1,1.6,0.1c0.4,0,0.9,0,1.5-0.1s1.2-0.1,1.6-0.1C202.2,18.5,202.2,18.6,202.2,18.9z"/>
	<path class="st8" d="M181.7,36c0,0.2-0.1,0.4-0.2,0.4c-0.6,0-1.3,0-2.1-0.1s-1.4-0.1-1.9-0.1s-1.1,0-1.8,0.1s-1.4,0.1-1.9,0.1
		c-0.1,0-0.2-0.1-0.2-0.4c0-0.2,0.1-0.3,0.2-0.3c0.7-0.1,1.3-0.2,1.6-0.4c0.4-0.2,0.6-0.3,0.7-0.6c0.1-0.2,0.1-0.7,0.1-1.2v-5.7
		h-9.8v5.7c0,0.6,0.1,1,0.1,1.2c0.1,0.2,0.3,0.4,0.7,0.6c0.4,0.1,0.9,0.3,1.6,0.4c0.1,0,0.2,0.1,0.2,0.3s-0.1,0.4-0.2,0.4
		c-0.6,0-1.2,0-1.9-0.1s-1.3-0.1-1.8-0.1s-1.2,0-1.9,0.1c-0.8,0.1-1.5,0.1-2.1,0.1c-0.1,0-0.2-0.1-0.2-0.4c0-0.2,0.1-0.3,0.2-0.3
		c1-0.1,1.7-0.3,2.1-0.6c0.4-0.3,0.6-0.8,0.6-1.6V21.4c0-0.6-0.1-1-0.2-1.3c-0.2-0.2-0.4-0.4-0.8-0.6c-0.4-0.1-0.9-0.3-1.7-0.3
		c-0.1,0-0.2-0.1-0.2-0.4c0-0.2,0.1-0.4,0.2-0.4c0.6,0,1.3,0,2.1,0.1s1.4,0.1,1.9,0.1s1.1,0,1.8-0.1s1.4-0.1,1.9-0.1
		c0.1,0,0.2,0.1,0.2,0.4c0,0.2-0.1,0.4-0.2,0.4c-0.7,0.1-1.2,0.2-1.5,0.3c-0.3,0.1-0.6,0.3-0.7,0.5c-0.1,0.2-0.2,0.7-0.2,1.4v5.5
		h9.8v-5.5c0-0.6,0-1-0.1-1.2s-0.3-0.4-0.7-0.6c-0.3-0.2-0.9-0.3-1.6-0.4c-0.1,0-0.2-0.1-0.2-0.4c0-0.2,0.1-0.4,0.2-0.4
		c0.6,0,1.2,0,1.9,0.1s1.3,0.1,1.8,0.1s1.2,0,1.9-0.1c0.8-0.1,1.5-0.1,2.1-0.1c0.1,0,0.2,0.1,0.2,0.4c0,0.2-0.1,0.4-0.2,0.4
		c-0.7,0.1-1.3,0.2-1.7,0.3c-0.4,0.1-0.6,0.3-0.8,0.6c-0.1,0.2-0.2,0.7-0.2,1.3v12.1c0,0.8,0.2,1.3,0.6,1.6c0.4,0.3,1.1,0.5,2.1,0.6
		C181.7,35.7,181.7,35.8,181.7,36z"/>
	<path class="st8" d="M160.1,36c0,0.2-0.1,0.4-0.2,0.4c-0.6,0-1.3,0-2-0.1c-0.6-0.1-1.2-0.1-1.6-0.1c-0.5,0-1.2,0-1.9,0.1
		c-0.8,0.1-1.5,0.1-2.1,0.1c-0.1,0-0.2-0.1-0.2-0.4c0-0.2,0.1-0.4,0.2-0.4c0.8,0,1.3-0.1,1.6-0.3s0.5-0.4,0.5-0.8
		c0-0.2-0.1-0.6-0.3-1.1l-1.5-4.3h-5.3l-1.5,4c-0.2,0.5-0.3,0.9-0.3,1.2c0,0.8,0.7,1.2,2.1,1.2c0.1,0,0.2,0.1,0.2,0.4
		c0,0.2-0.1,0.4-0.2,0.4c-0.5,0-1.1,0-1.7-0.1c-0.6-0.1-1.1-0.1-1.6-0.1c-0.4,0-0.8,0-1.4,0.1c-0.6,0.1-1.1,0.1-1.5,0.1
		c-0.1,0-0.2-0.1-0.2-0.3s0.1-0.4,0.3-0.4c0.7-0.1,1.3-0.3,1.7-0.6s0.8-1,1.3-2l6-14.8c0.1-0.1,0.2-0.2,0.4-0.2s0.3,0.1,0.4,0.2
		l5.3,14.8c0.3,0.8,0.7,1.4,1.2,1.8c0.5,0.4,1.2,0.6,2,0.7C160.1,35.7,160.1,35.8,160.1,36L160.1,36z M152.4,28.4l-2.3-6.6l-2.4,6.6
		H152.4z"/>
	<path class="st8" d="M141,18.9c0,0.2-0.1,0.4-0.2,0.4c-1.1,0.1-1.8,0.3-2.2,0.6c-0.4,0.3-0.6,0.8-0.6,1.6v8.1
		c0,2.3-0.6,4.1-1.7,5.4c-1.1,1.3-2.7,1.9-4.7,1.9c-2.3,0-4.1-0.6-5.4-1.9c-1.3-1.2-1.9-2.9-1.9-5.1v-8.5c0-0.6-0.1-1-0.2-1.3
		c-0.1-0.2-0.4-0.4-0.8-0.6c-0.4-0.1-0.9-0.3-1.7-0.3c-0.1,0-0.2-0.1-0.2-0.4c0-0.2,0.1-0.4,0.2-0.4c0.6,0,1.3,0,2,0.1
		c0.8,0.1,1.4,0.1,1.9,0.1s1.2,0,1.9-0.1c0.8-0.1,1.5-0.1,2.1-0.1c0.1,0,0.2,0.1,0.2,0.4c0,0.2-0.1,0.4-0.2,0.4
		c-0.7,0.1-1.3,0.2-1.7,0.3c-0.4,0.1-0.6,0.3-0.8,0.6c-0.1,0.2-0.2,0.7-0.2,1.3v8.1c0,2.1,0.4,3.7,1.2,4.6c0.8,1,2.1,1.5,3.9,1.5
		c3.4,0,5.1-2.1,5.1-6.4v-7.8c0-0.8-0.2-1.3-0.6-1.6c-0.4-0.3-1.1-0.5-2.2-0.6c-0.1,0-0.2-0.1-0.2-0.4c0-0.2,0.1-0.4,0.2-0.4
		c0.4,0,0.9,0,1.6,0.1c0.7,0.1,1.2,0.1,1.6,0.1c0.4,0,0.9,0,1.5-0.1s1.2-0.1,1.6-0.1C140.9,18.5,141,18.6,141,18.9z"/>
	<path class="st8" d="M120.5,36c0,0.2-0.1,0.4-0.2,0.4c-0.6,0-1.3,0-2.1-0.1c-0.8-0.1-1.4-0.1-1.9-0.1s-1.1,0-1.8,0.1
		c-0.7,0.1-1.4,0.1-1.9,0.1c-0.1,0-0.2-0.1-0.2-0.4c0-0.2,0.1-0.3,0.2-0.3c0.7-0.1,1.3-0.2,1.6-0.4c0.4-0.2,0.6-0.3,0.7-0.6
		c0.1-0.2,0.1-0.7,0.1-1.2v-5.7h-9.8v5.7c0,0.6,0.1,1,0.1,1.2c0.1,0.2,0.3,0.4,0.7,0.6c0.4,0.1,0.9,0.3,1.6,0.4
		c0.1,0,0.2,0.1,0.2,0.3s-0.1,0.4-0.2,0.4c-0.6,0-1.2,0-1.9-0.1c-0.7-0.1-1.3-0.1-1.8-0.1s-1.2,0-1.9,0.1c-0.8,0.1-1.5,0.1-2.1,0.1
		c-0.1,0-0.2-0.1-0.2-0.4c0-0.2,0.1-0.3,0.2-0.3c1-0.1,1.7-0.3,2.1-0.6s0.6-0.8,0.6-1.6V21.4c0-0.6-0.1-1-0.2-1.3
		c-0.2-0.2-0.4-0.4-0.8-0.6c-0.4-0.1-0.9-0.3-1.7-0.3c-0.1,0-0.2-0.1-0.2-0.4c0-0.2,0.1-0.4,0.2-0.4c0.6,0,1.3,0,2.1,0.1
		c0.8,0.1,1.4,0.1,1.9,0.1s1.1,0,1.8-0.1c0.7-0.1,1.4-0.1,1.9-0.1c0.1,0,0.2,0.1,0.2,0.4c0,0.2-0.1,0.4-0.2,0.4
		c-0.7,0.1-1.2,0.2-1.5,0.3c-0.3,0.1-0.6,0.3-0.7,0.5s-0.2,0.7-0.2,1.4v5.5h9.8v-5.5c0-0.6,0-1-0.1-1.2s-0.3-0.4-0.7-0.6
		c-0.3-0.2-0.9-0.3-1.6-0.4c-0.1,0-0.2-0.1-0.2-0.4c0-0.2,0.1-0.4,0.2-0.4c0.6,0,1.2,0,1.9,0.1c0.7,0.1,1.3,0.1,1.8,0.1
		s1.2,0,1.9-0.1c0.8-0.1,1.5-0.1,2.1-0.1c0.1,0,0.2,0.1,0.2,0.4c0,0.2-0.1,0.4-0.2,0.4c-0.7,0.1-1.3,0.2-1.7,0.3
		c-0.4,0.1-0.6,0.3-0.8,0.6c-0.2,0.2-0.2,0.7-0.2,1.3v12.1c0,0.8,0.2,1.3,0.6,1.6s1.1,0.5,2.1,0.6C120.4,35.7,120.5,35.8,120.5,36z"
		/>
	<path class="st8" d="M97.4,36c0,0.2-0.1,0.4-0.2,0.4c-0.6,0-1.3,0-2-0.1c-0.8-0.1-1.4-0.1-1.9-0.1s-1.2,0-1.9,0.1
		c-0.8,0.1-1.5,0.1-2.1,0.1c-0.1,0-0.2-0.1-0.2-0.4c0-0.2,0.1-0.3,0.2-0.3c1-0.1,1.7-0.3,2.1-0.6s0.6-0.8,0.6-1.6V21.4
		c0-0.6-0.1-1-0.2-1.3c-0.1-0.2-0.4-0.4-0.8-0.6c-0.4-0.1-0.9-0.3-1.7-0.3c-0.1,0-0.2-0.1-0.2-0.4c0-0.2,0.1-0.4,0.2-0.4
		c0.6,0,1.3,0,2.1,0.1c0.8,0.1,1.4,0.1,1.9,0.1s1.2,0,1.9-0.1c0.8-0.1,1.5-0.1,2-0.1c0.1,0,0.2,0.1,0.2,0.4c0,0.2-0.1,0.4-0.2,0.4
		c-0.7,0.1-1.3,0.2-1.6,0.3c-0.4,0.1-0.6,0.3-0.8,0.6c-0.1,0.2-0.2,0.7-0.2,1.3v12.1c0,0.6,0.1,1,0.2,1.3c0.1,0.2,0.4,0.4,0.8,0.6
		c0.4,0.1,0.9,0.3,1.6,0.3C97.4,35.7,97.4,35.8,97.4,36z"/>
	<path class="st8" d="M86.8,36c0,0.2-0.1,0.4-0.2,0.4c-0.6,0-1.3,0-2.1-0.1c-0.8-0.1-1.4-0.1-1.9-0.1s-1.1,0-1.8,0.1
		c-0.7,0.1-1.4,0.1-1.9,0.1c-0.1,0-0.2-0.1-0.2-0.4c0-0.2,0.1-0.3,0.2-0.3c0.7-0.1,1.3-0.2,1.6-0.4c0.4-0.2,0.6-0.3,0.7-0.6
		c0.1-0.2,0.1-0.7,0.1-1.2v-5.7h-9.8v5.7c0,0.6,0.1,1,0.2,1.2s0.3,0.4,0.7,0.6c0.4,0.1,0.9,0.3,1.6,0.4c0.1,0,0.2,0.1,0.2,0.3
		s-0.1,0.4-0.2,0.4c-0.6,0-1.2,0-1.9-0.1c-0.7-0.1-1.3-0.1-1.8-0.1s-1.2,0-1.9,0.1c-0.8,0.1-1.5,0.1-2.1,0.1c-0.1,0-0.2-0.1-0.2-0.4
		c0-0.2,0.1-0.3,0.2-0.3c1-0.1,1.7-0.3,2.1-0.6s0.6-0.8,0.6-1.6V21.4c0-0.6-0.1-1-0.2-1.3c-0.2-0.2-0.4-0.4-0.8-0.6
		c-0.4-0.1-0.9-0.3-1.7-0.3c-0.1,0-0.2-0.1-0.2-0.4c0-0.2,0.1-0.4,0.2-0.4c0.6,0,1.3,0,2.1,0.1c0.8,0.1,1.4,0.1,1.9,0.1
		s1.1,0,1.8-0.1c0.7-0.1,1.4-0.1,1.9-0.1c0.1,0,0.2,0.1,0.2,0.4c0,0.2-0.1,0.4-0.2,0.4c-0.7,0.1-1.2,0.2-1.5,0.3
		c-0.3,0.1-0.6,0.3-0.7,0.5s-0.2,0.7-0.2,1.4v5.5h9.8v-5.5c0-0.6,0-1-0.1-1.2s-0.3-0.4-0.7-0.6c-0.3-0.2-0.9-0.3-1.6-0.4
		c-0.1,0-0.2-0.1-0.2-0.4c0-0.2,0.1-0.4,0.2-0.4c0.6,0,1.2,0,1.9,0.1c0.7,0.1,1.3,0.1,1.8,0.1s1.2,0,1.9-0.1
		c0.8-0.1,1.5-0.1,2.1-0.1c0.1,0,0.2,0.1,0.2,0.4c0,0.2-0.1,0.4-0.2,0.4c-0.7,0.1-1.3,0.2-1.7,0.3c-0.4,0.1-0.6,0.3-0.8,0.6
		S84,20.8,84,21.4v12.1c0,0.8,0.2,1.3,0.6,1.6s1.1,0.5,2.1,0.6C86.8,35.7,86.8,35.8,86.8,36z"/>
	<path class="st8" d="M64.6,31.6C64.3,33,64,34.5,63.7,36c-0.5,0-1.4,0.1-2.7,0.3c-1.6,0.3-2.9,0.4-3.7,0.4c-2,0-3.7-0.4-5.1-1.2
		c-1.5-0.8-2.6-1.9-3.4-3.3c-0.8-1.4-1.2-3-1.2-4.8c0-1.7,0.4-3.3,1.3-4.8c0.9-1.5,2.1-2.6,3.6-3.4s3.2-1.2,5.2-1.2
		c0.8,0,1.9,0.1,3.2,0.3c1.1,0.1,1.8,0.2,2.3,0.2c0.1,1.2,0.3,2.7,0.6,4.4c0,0.1-0.1,0.2-0.4,0.2c-0.2,0-0.3-0.1-0.3-0.2
		c-0.3-1.2-1-2.1-2-2.9s-2.2-1.1-3.5-1.1c-2,0-3.7,0.8-5.1,2.5c-1.4,1.7-2.1,3.7-2.1,6.1c0,2.3,0.7,4.3,2,6c1.4,1.6,3,2.5,5,2.5
		c3.1,0,5.2-1.4,6.5-4.3c0.1-0.1,0.2-0.2,0.3-0.2C64.5,31.4,64.6,31.5,64.6,31.6z"/>
</g>
</svg>
