<?xml version="1.0" encoding="UTF-8"?>
<!DOCTYPE svg PUBLIC "-//W3C//DTD SVG 1.1//EN" "http://www.w3.org/Graphics/SVG/1.1/DTD/svg11.dtd">
<!-- Creator: CorelDRAW -->
<svg xmlns="http://www.w3.org/2000/svg" xml:space="preserve" width="223.295mm" height="40.8949mm" version="1.1" style="shape-rendering:geometricPrecision; text-rendering:geometricPrecision; image-rendering:optimizeQuality; fill-rule:evenodd; clip-rule:evenodd"
viewBox="0 0 22329.52 4089.49"
 xmlns:xlink="http://www.w3.org/1999/xlink"
 xmlns:xodm="http://www.corel.com/coreldraw/odm/2003">
 <defs>
  <style type="text/css">
   <![CDATA[
    .fil2 {fill:#00B5F0}
    .fil5 {fill:#058943}
    .fil7 {fill:#23945D}
    .fil4 {fill:#6EBDE3}
    .fil3 {fill:#8C2889}
    .fil6 {fill:#FAED38}
    .fil0 {fill:white}
    .fil8 {fill:#202020;fill-rule:nonzero}
    .fil1 {fill:url(#id0)}
   ]]>
  </style>
  <linearGradient id="id0" gradientUnits="userSpaceOnUse" x1="1818.84" y1="13555.02" x2="1818.84" y2="-21988.5">
   <stop offset="0" style="stop-opacity:1; stop-color:#87B7E2"/>
   <stop offset="1" style="stop-opacity:1; stop-color:#FBFDFF"/>
  </linearGradient>
 </defs>
 <g id="Layer_x0020_1">
  <metadata id="CorelCorpID_0Corel-Layer"/>
  <g id="_105553255412896">
   <g>
    <path class="fil0" d="M730.38 0c788.3,0 1576.61,0 2364.91,0 0,287.67 0,575.34 0,863.01 423.67,333.64 694.03,840.12 694.03,1407.27 0,1004.66 -848.18,1819.21 -1894.66,1819.21 -1046.48,0 -1894.66,-814.55 -1894.66,-1819.21 0,-583.22 285.86,-1102.32 730.38,-1435.24l0 -835.04z"/>
    <path class="fil0" d="M475.63 2270.28c0,-752.64 635.16,-1362.33 1419.03,-1362.33 783.87,0 1419.52,609.69 1419.52,1362.33 0,752.65 -635.65,1362.81 -1419.52,1362.81 -783.87,0 -1419.03,-610.16 -1419.03,-1362.81z"/>
    <ellipse class="fil1" cx="1894.9" cy="2270.27" rx="1419.27" ry="1362.57"/>
    <path class="fil0" d="M1378.22 3539.99c-162.58,-61.03 -310.56,-149.98 -437.53,-260.76 15.85,-4.69 21.84,-9.83 45.66,-31.94 6.51,-6.01 12.62,-8.75 21.11,-11.9 0.54,-0.25 1.56,-0.55 2.23,-1.06 18.12,-20.93 55.75,-18.38 82.92,-17.92 7.68,0.1 34.8,0.68 41.6,-3.91 3.69,-4.91 7.57,-13.9 11.24,-19.39 9.38,-14.27 21.43,-26.26 36.34,-36.58 11.62,-8.09 24.05,-15.54 36.48,-22.66 15.01,-8.55 30.37,-16.7 45.85,-24.66 6.48,-3.33 13.52,-6.67 20.09,-10.1 6.82,-9.34 18.45,-18.22 27.65,-24.31 11.75,-7.76 23.58,-15.59 36.43,-22.06 15.77,-7.91 30.34,-9.66 48.14,-9.26 7.14,0.17 15.2,-1.03 22.81,-0.92 19.88,0.31 38.31,6.45 46.33,21.79 0.67,0.17 1.35,0.3 1.91,0.39 19.12,3.8 34.84,4.03 49.83,17.2 8.11,7.1 14.52,15.83 22.22,23.39 4.77,2.93 10.87,5.38 15.93,8.52 3.23,2.03 6.29,4.23 9.06,6.7 39.16,16.29 107.29,49.9 132.67,79.47 17.68,9.37 34.53,20.56 52.55,29.72 27.51,13.99 50.88,18.14 60.88,47.81 3.54,10.48 8.84,11.66 18.61,17.64 5.39,3.32 10.14,6.95 14.19,11.48 11.54,12.75 23.36,34.12 38.62,43.47 22.09,13.55 36.74,27.29 52.23,46.14 11.61,14.14 21.3,26.25 36.32,38.28l32.49 26.09 -43.6 8.2c-73.44,13.81 -149.22,24.87 -223.4,34.86 -118.13,15.9 -238.02,28.66 -357.86,36.28z"/>
    <path class="fil2" d="M1333.56 3522.34c-137.48,-56.92 -263.73,-134.07 -374.66,-227.6 12.92,-5.19 22.59,-13.13 44.91,-33.86 8.48,-7.85 17.27,-5.74 24.93,-14.62 18.68,-21.6 97.09,2.07 122.79,-19.99 8.23,-7.04 11.53,-30.79 45.27,-54.17 38.18,-26.51 105.14,-58.08 105.54,-59.07 2.48,-6.14 14.02,-15.71 24.07,-22.32 7.23,-4.81 21.21,-14.21 33.94,-20.62 12.45,-6.23 23.37,-6.77 35.38,-6.44 11.84,0.24 44.12,-6.34 49.4,11.99 1.42,4.87 9.41,7.22 16.91,8.69 11.13,2.22 28.3,2.87 38.24,11.6 6.18,5.41 13.46,15.07 22.39,23.6 4.2,3.99 19.81,8.87 27.08,17.31 34.14,13.84 111.12,50.75 130.73,78.11 10.31,5.16 37.39,22.07 57.11,32.08 26.37,13.41 43.25,15.28 50.25,36.06 8.06,23.93 25.86,23.7 36.82,35.83 12.15,13.47 23.93,35.57 43.52,47.54 45.91,28.16 47.54,51.74 86.15,82.74 0,0 -296.46,55.75 -620.77,73.14z"/>
    <path class="fil0" d="M2931.7 3200.65c-116.53,119.64 -255.2,219.11 -409.81,292.36l-667.68 -42.25 57.84 -45.79 0.4 -0.28c7.68,-5.56 18.37,-12.57 28.47,-14.13 8.41,-2.23 14.56,-6.62 24.17,-6.8 2.19,-0.13 4.23,-0.24 6.12,-0.38 2.43,-3.12 5.26,-5.96 8.49,-8.13 2.18,-2.29 4.41,-4.1 7.6,-5.84 8.29,-4.52 14.24,-7.03 14.31,-7.03l0.47 -0.23 74.21 -31.75 55.15 -27.17 82.16 -35.54 43.08 -20.49 36.69 -22.08 15.86 -12.8 15.19 -16.12c5.52,-15.64 8.39,-19.1 22.63,-32.22 6.35,-6.04 12.91,-15.05 20.49,-19.73 10.7,-6.65 21.25,-13.92 31.74,-20.89 10.13,-8.71 19.6,-15.48 32.51,-21.35 11.73,-5.27 21.13,-5.42 33.83,-5.42 4.95,0 9.92,0 14.88,0 2.32,0 5.14,0.15 7.6,0.14 0.89,-0.59 1.82,-1.26 2.52,-1.8l0.38 -0.23 0.38 -0.26c10.32,-6.91 21.4,-12.29 35,-11.68 9.6,0.4 17.55,3.98 26.84,5.4 10.9,1.77 19.4,11.13 26.04,20.11 10.15,-9.08 18.23,-18.14 35.34,-17.11 11.54,0.72 20.06,6.59 30.25,9.76l3.36 1 2.86 1.81c1.57,1.01 3.48,2.21 5.38,3.25 12.24,-10.67 23.01,-17.5 41.33,-22.03l3.05 -0.76 3.22 -0.03c0.75,-0.03 34.94,-0.46 41.51,-0.46 8.81,0 37.62,8.21 44.68,12.43 9.42,5.57 23.24,11.01 29.84,19.58 2.44,2.3 6.03,4.84 8.69,6.8 17.03,12.52 30.37,28.84 47.47,41.42 11.68,8.53 24.7,9.94 35.78,21.96 2.87,3.08 11.73,10.67 15.68,12.7l4 2.06z"/>
    <path class="fil2" d="M2916.31 3216.24c-103.91,103.39 -224.67,191.04 -358.04,258.9l-648.24 -41.05 17.76 -14.08c0,0 12.72,-9.19 17.45,-9.64 4.65,-0.48 17.81,-6.47 20.39,-6.47 2.53,0 20.37,-1.86 20.37,-1.86 0,0 5.53,-9.69 8.51,-11.03 2.96,-1.41 2.93,-3.24 5.51,-4.62 2.56,-1.37 13.19,-6.45 13.19,-6.45l74.32 -31.81 55.25 -27.21 81.98 -35.47 44.6 -21.23 39.05 -23.51 18.28 -14.73 19.12 -20.27c5.95,-17.55 6.49,-16.83 18.7,-28.13 2.97,-2.76 14,-15.21 17.01,-17.05 2.95,-1.85 33.55,-22.14 33.55,-22.14 10.25,-8.85 17.35,-13.84 27.79,-18.56 7.65,-3.42 14.42,-3.09 22.76,-3.09 3.41,0 10.64,0 14.88,0 13.04,0 14.87,1.21 25.47,-6.45 19.55,-13 21.21,-5.75 42.9,-2.34 3.01,0.49 16.59,19.97 16.59,19.97 11.96,4.51 11.88,2.99 24.63,-0.94 9.03,-5.46 15.09,-16.19 22.81,-15.73 4.63,0.3 18.18,6.89 24.02,8.63 0,0 10.21,6.45 13.17,6.93 4.63,0.71 15.15,1.6 19.03,-1.97 12.2,-11.14 19.7,-16.71 35.26,-20.53 0,0 39.06,-0.49 41.18,-0.49 2.13,0 27.22,6.47 31.02,8.76 3.83,2.32 22.53,11.52 23.8,14.3 0.64,1.36 6.41,6.08 12.89,10.84 13.64,10.04 30.22,28.74 47.5,41.44 11.82,8.65 25.39,11.32 32.63,19.15 3.39,3.7 14.89,13.83 22.1,17.52l0.81 0.41z"/>
    <path class="fil0" d="M2231.96 3594.24c-108.14,25.32 -221.07,38.84 -337.31,38.84 -135.29,0 -266.17,-18.2 -390.1,-52.15 -76.45,-36.65 -150.19,-82.97 -238.5,-133.65l152.24 -77.33 64.7 -37.48c36.24,-21.6 65.97,-38.54 111.1,-41.71 8.34,-0.58 20.31,-9.77 26.51,-14.11 9.16,-6.35 18.25,-12.37 28.97,-16.74 7.45,-3.05 20.55,-13.17 27.07,-17.95 30.18,-22.32 54.2,-18.77 89.8,-16.6 17.83,1.09 33.54,5.56 47.43,15.26 3.7,2.6 10.82,9.44 14.54,11.81 4.63,-0.59 14.52,-5.33 18.55,-7.36 30.59,-18.52 62.16,-26.61 98.74,-32.05 68.95,-10.31 120.39,-0.45 173.98,32.94 10.82,-6.1 23.39,-10.65 35.32,-10.65 6.62,0 14.46,-1.61 21.14,-2.27 13.08,-1.29 25.17,-0.55 37.41,3.96 19.14,7.03 44.82,17.65 58.9,30.61 10.84,9.94 23.92,19.9 35.59,29.26 11.78,9.49 23.61,18.95 35.46,28.38 10.6,3.36 23.74,5.72 34.35,7.04 73.87,9.03 21.72,1.18 88.68,36.37l74.69 55.63c-108.73,65.6 -204.15,126.19 -309.26,169.95z"/>
    <path class="fil2" d="M2595.42 3455.59c-206.77,112.92 -445.91,177.49 -700.77,177.49 -246.48,0 -478.26,-60.38 -680.21,-166.49l215.35 -78.92 66.71 -38.68c40.17,-23.92 63.33,-35.63 99.5,-38.16 15.11,-1.04 27.05,-9.84 39.65,-18.67 7.55,-5.24 15.35,-10.52 24.15,-14.1 8.15,-3.33 21.41,-12.81 32.41,-20.92 24.52,-18.18 47.14,-13.27 72.55,-11.7 55.89,3.34 36.29,46.82 95.21,16.48 29.46,-18.05 59.46,-24.56 89.85,-29.06 61.89,-9.24 110.87,-2.65 170.05,38.73 0,0 19.31,-16.12 35.13,-16.12 15.77,0 31.56,-6.45 49.16,0 17.55,6.45 40.37,16.12 50.94,25.81 10.52,9.64 75.45,61.27 75.45,61.27 0,0 17.56,6.44 43.91,9.67 57.98,7.1 148.83,63.21 220.96,103.37z"/>
    <path class="fil3" d="M414.76 2270.28c0,-784.59 662.63,-1420.79 1479.9,-1420.79 817.74,0 1479.9,636.2 1479.9,1420.79 0,785.07 -662.16,1421.28 -1479.9,1421.28 -817.27,0 -1479.9,-636.21 -1479.9,-1421.28zm-359.29 0c0,-975.2 823.63,-1766.16 1839.19,-1766.16 1016.05,0 1839.19,790.96 1839.19,1766.16 0,975.2 -823.14,1766.15 -1839.19,1766.15 -1015.56,0 -1839.19,-790.95 -1839.19,-1766.15z"/>
    <polygon class="fil4" points="3039.29,2706.54 3039.29,52.64 1107.83,55.58 "/>
    <polygon class="fil5" points="3039.29,3006.72 785.84,3006.72 785.84,55.08 1107.83,55.08 1107.83,2705.56 3039.29,2705.56 "/>
    <path class="fil6" d="M3648.43 1979.45l-233.15 48.14 -13.26 -62.4 99.15 -23.09 -14.23 -65.82 -100.62 21.11 -12.27 -64.36 231.18 -53.05 15.22 66.32 -105.53 26.04 12.76 64.85 109.45 -17.68 11.3 59.94zm-3125.68 -417.11l-153.63 -76.65c0,0 -29.46,-10.31 -45.66,22.61 0,0 -25.02,35.86 14.25,56.5l146.76 76.15 -15.22 28 -170.33 -89.41c0,0 -38.28,-32.92 -9.81,-95.8 0,0 41.23,-84.5 111.91,-55.52l154.13 75.17 -32.4 58.95zm-289.61 1309.26l-20.6 -55.51 228.24 -77.12 16.69 61.4 -224.33 71.23zm-1.94 -247.11l-32.41 -27.51c0,0 -45.64,61.9 -21.6,111.53 0,0 30.94,63.36 99.65,47.15 0,0 38.77,-3.44 53.01,-72.7 0,0 3.44,-51.59 29.94,-54.04 0,0 24.54,-4.92 30.93,22.1 0,0 -1.97,37.34 -23.07,50.12l26.01 20.13c0,0 33.87,-33.4 33.38,-69.26 0,0 -3.93,-66.82 -66.26,-77.14 0,0 -72.66,-16.7 -91.31,63.37 0,0 -6.37,69.28 -42.7,64.87 0,0 -38.28,-15.24 -20.12,-52.57 0,0 11.28,-16.71 19.15,-21.62l5.4 -4.43zm-102.1 -242.69l238.06 -20.14 15.7 105.62c0,0 3.93,76.15 -43.2,91.38 0,0 -73.62,12.77 -92.27,-43.73l-91.79 69.27 -8.84 -77.12 108.97 -65.84c0,0 1.97,63.38 56.45,57.48 0,0 49.08,-3.44 33.87,-71.72l-216.95 22.1 0 -67.3zm25.03 -42.74l-27.48 -0.5 3.43 -149.83 243.94 16.21 -11.29 142.96 -29.44 -0.49 2.45 -82.54 -68.72 -2.45 -4.41 74.19 -29.94 -1.48 3.43 -75.16 -77.07 -4.43 -4.9 83.52zm230.7 -371.41l-250.34 83.52 236.59 119.38 0.98 -33.42 -114.36 -57.96 125.16 -42.74 1.97 -68.78zm5.89 -6.38l-236.59 -43.25 12.76 -66.31 237.07 45.68 -13.24 63.88zm26.01 -102.2l-233.16 -63.86 9.82 -40.28 203.21 -57 -170.32 -51.57 9.82 -33.42 232.66 70.75 -19.15 64.85 -135.47 42.25 114.36 32.91 -11.77 35.37zm-99.65 1119.14l154.62 -71.72 14.73 31.44c0,0 15.22,63.86 -47.13,85 0,0 -72.14,29.96 -102.58,-11.31l-19.64 -33.41zm-63.31 -45.68l225.3 -100.72 46.62 100.23c0,0 27.49,114.95 -52.52,154.75 0,0 -111.42,48.15 -160.5,-37.34l-58.9 -116.92zm267.51 269.7l-30.44 -39.78 82.47 -24.57 -52.03 64.35zm-136.45 -15.71l-19.64 -32.92 245.42 -54.53 37.31 48.64 -145.78 207.81 -48.6 -63.38 44.67 -63.37 -42.71 -58.96 -70.67 16.71zm216.95 207.81l116.82 -120.36 15.21 15.24c0,0 47.13,52.07 1.97,99.72 0,0 -59.39,72.71 -117.32,21.13l-16.68 -15.73zm-74.61 -23.58l164.92 -169.5 90.82 87.96c0,0 76.55,103.15 -18.66,170.95 0,0 -79.03,68.29 -173.77,-24.07l-63.31 -65.34zm1768.99 573.32l-60.85 -223.53 59.87 -17.19 89.34 103.16 14.72 -133.13 66.76 -17.19 63.32 231.39 -66.27 14.74 -36.81 -141.49 -27 155.74 -102.09 -114.47 35.84 131.66 -36.83 10.31zm827.58 -414.63l-180.63 -155.24 98.16 -113.5 25.03 24.57 -53.01 63.86 48.11 40.78 49.07 -56.5 29.46 24.08 -48.11 60.42 50.07 43.73 59.39 -67.31 24.06 22.6 -101.6 112.51zm-190.94 108.08l-101.61 -128.72 25.52 -21.12c0,0 48.59,-22.6 86.4,16.69 0,0 52.01,58.96 22.07,107.1l-32.38 26.05zm-31.42 64.84l-145.29 -180.3 95.71 -75.16c0,0 89.34,-54.04 160.99,22.6 0,0 63.33,93.83 -14.23,159.67l-97.18 73.19zm-320.52 58.47l-6.38 -83.52 58.89 58.47 -52.51 25.05zm-25.03 112.99l-17.68 -244.65 57.92 -26.04 182.11 177.84 -70.68 31.94 -48.6 -51.6 -73.63 35.38 6.88 62.88 -36.32 14.25zm-1589.85 -278.56l-47.61 -30.95 72.15 -54.52 -24.54 85.47zm-129.09 33.41l-32.88 -27.01 209.1 -141.99 53.5 34.39 -67.74 246.13 -62.83 -43.23 18.16 -68.29 -62.83 -44.7 -54.48 44.7zm300.9 -82.54l-70.2 139.04c0,0 -36.81,81.56 41.71,120.36 0,0 84.93,51.1 137.44,-44.22l63.81 -127.73 -31.41 -15.22 -65.77 133.63c0,0 -33.87,51.58 -73.64,26.03 0,0 -32.88,-27.99 -5.87,-80.57l62.34 -122.82 -58.41 -28.5zm167.86 336.53l67.24 -192.08 -58.4 -20.64 13.24 -31.44 186.04 65.83 -12.28 29.48 -62.33 -20.63 -65.78 192.58 -67.73 -23.1zm179.65 -78.11c18.65,-64.85 86.88,-102.19 152.64,-83.51 65.29,18.66 103.58,86.46 84.93,151.8 -18.66,64.85 -86.88,102.68 -152.66,84.01 -65.27,-19.16 -103.57,-86.96 -84.91,-152.3zm67.24 20.14c14.73,-51.09 50.56,-85.47 80.01,-77.13 29.45,8.35 41.22,56.51 26.51,107.6 -14.73,51.09 -50.08,85.97 -79.53,77.62 -29.44,-8.84 -41.72,-56.99 -26.99,-108.09zm201.24 153.79l0 -234.36 76.08 1.48 80.5 113 0 -115.45 33.87 0 0 225.99 -36.81 0 -119.76 -159.67 0 168.51 -33.88 0.5zm238.56 -91.88c-17.67,-65.35 21.6,-132.65 87.36,-150.34 65.77,-17.68 133.51,21.13 150.7,86.46 17.67,65.35 -21.6,132.65 -87.38,150.34 -65.77,17.69 -133.51,-21.12 -150.68,-86.46zm67.74 -17.69c-13.75,-51.1 -0.99,-99.24 28.45,-107.1 29.96,-7.86 64.8,27.51 78.54,78.61 13.76,51.58 0.99,99.24 -28.46,107.1 -29.45,8.35 -64.79,-27.02 -78.53,-78.61zm1232.5 -818.96c0,0 -81.48,4.91 -82.96,64.85 0,0 -3.44,39.29 50.56,72.21 0,0 81.49,42.74 112.9,8.84 0,0 38.77,-45.69 3.43,-96.78l36.82 -9.82c0,0 26.99,80.08 -23.56,134.61 0,0 -59.4,83.51 -164.93,27.02 0,0 -86.38,-72.71 -40.74,-163.6 0,0 26.01,-67.31 106.52,-65.84l1.96 28.51zm150.19 -601.83l2.95 -65.33 175.24 5.89c0,0 31.41,-3.94 30.92,-41.76 0,0 1.96,-38.81 -39.27,-43.72l-165.9 -8.36 1.96 -34.87 174.24 13.25c0,0 76.09,4.92 68.23,93.84 0,0 0,83.52 -66.26,85.49l-182.11 -4.43zm184.57 274.14l-233.16 -52.08 14.73 -66.81 93.26 19.16 8.84 -66.82 -87.37 -19.64 10.31 -58.97 234.62 51.1 -12.77 55.03 -102.58 -20.15 -9.33 68.78 96.7 22.6 -13.25 67.8zm-45.17 114.95l-228.73 -74.18 23.07 -62.39 230.21 72.72 -24.55 63.85zm-105.03 238.28l-213.52 -110.05 27.98 -58.95 86.87 44.22 30.93 -59.94 -85.4 -45.69 27.49 -60.92 216.94 108.58 -28.95 59.94 -93.76 -45.7 -30.42 61.91 91.29 48.14 -29.45 58.46zm-94.74 -1560.81l-81.97 18.67 63.33 -66.31 18.64 47.64zm127.62 11.31l-244.44 48.15 -37.3 -67.81 171.3 -184.72 32.89 67.81 -48.6 51.08 36.33 72.71 76.08 -17.69 13.74 30.47zm66.27 662.74l-83.44 -10.31 81.97 -40.79 1.47 51.1zm116.33 54.53l-246.41 -38.81 -11.77 -76.16 223.82 -114.95 8.34 74.68 -63.31 31.93 9.32 80.56 77.56 9.34 2.45 33.41zm-331.32 -437.73l-19.63 -65.34 144.79 -47.16c0,0 47.62,-17.69 33.86,-62.41 0,0 -5.87,-29.96 -52.01,-22.59l-155.61 53.55 -12.27 -34.89 163.94 -54.02c0,0 85.42,-23.1 101.12,69.26 0,0 22.58,91.86 -62.83,116.92l-141.36 46.68z"/>
    <path class="fil0" d="M856.03 302.69l0 -100.71 151.67 0 0 40.78 -131.54 0 0 59.93 -20.13 0zm2015.4 2623.45l0 -141.98 79.52 0c0,0 52.04,7.37 45.66,52.08 0,0 -3.93,26.52 -34.36,32.91l36.31 56.99 -50.06 0 -30.93 -64.35c0,0 -1.96,-6.4 1.97,-6.4l12.27 0c0,0 21.6,-3.93 20.61,-25.54 0,0 0.49,-25.54 -23.07,-27.02l-16.68 0 0 123.31 -41.24 0zm-2015.4 -1002.7l0 -100.72 151.67 -0.48 0 41.26 -131.54 0 0 59.45 -20.13 0.49zm75.6 9.32c42.21,0 76.07,33.91 76.07,76.15 0,42.26 -33.86,76.65 -76.07,76.65 -41.73,0 -75.6,-34.39 -75.6,-76.65 0,-42.24 33.87,-76.15 75.6,-76.15zm-0.5 43.24c32.88,0 59.88,15.23 59.88,34.39 0,19.16 -27,34.39 -59.88,34.39 -32.89,0 -59.39,-15.23 -59.39,-34.39 0,-19.16 26.5,-34.39 59.39,-34.39zm-10.3 282.98l0 -36.36 -33.87 0c0,0 -19.15,-6.87 -16.2,-34.88 0,0 6.87,-41.27 50.07,-41.76 0,0 59.38,-1.96 65.77,33.41 0,0 7.85,28.99 -26.51,48.15l15.22 23.09c0,0 35.34,-16.7 31.9,-68.3 0,0 -0.98,-70.74 -73.13,-75.16 0,0 -77.06,2.95 -77.55,69.76 0,0 -6.88,54.54 22.09,80.08l1.95 1.47 40.26 0.5zm-65.28 24.56l152.15 0 0 79.59c0,0 -7.85,52.08 -55.96,45.19 0,0 -27.97,-3.92 -34.84,-33.89l-61.35 35.86 0 -50.11 69.21 -30.95c0,0 6.87,-1.47 6.87,2.46l0 12.28c0,0 3.91,21.62 27,20.64 0,0 27.97,0 29.44,-23.1l0 -17.19 -132.52 0 0 -40.78zm60.86 210.27l0 -37.83 50.55 17.69 -50.55 20.14zm-60.38 -78.11l151.67 48.15 0 40.77 -151.67 62.39 0 -50.11 43.2 -17.69 0 -48.14 -43.2 -14.24 0 -21.13zm-0.48 166.54l152.15 0 0 79.1c0,0 -7.85,52.08 -55.96,45.68 0,0 -27.97,-3.91 -34.84,-34.38l-61.35 36.35 0 -50.11 69.21 -30.95c0,0 6.87,-1.47 6.87,1.97l0 12.27c0,0 3.91,21.62 27,20.65 0,0 27.97,0.49 29.44,-23.09l0 -16.71 -132.52 0 0 -40.78zm204.67 343.9l-100.61 0 0 -141.98 40.73 0 0 121.83 59.88 0 0 20.15zm10.8 -70.75c0,-39.3 31.9,-71.23 71.17,-71.23 39.77,0 71.68,31.93 71.68,71.23 0,39.31 -31.91,70.75 -71.68,70.75 -39.27,0 -71.17,-31.44 -71.17,-70.75zm40.74 0.5c0,-30.96 14.24,-56.01 31.91,-56.01 17.66,0 31.9,25.05 31.9,56.01 0,30.45 -14.24,55.51 -31.9,55.51 -17.67,0 -31.91,-25.06 -31.91,-55.51zm270.46 9.83l-34.36 0 0 31.93c0,0 -6.38,18.18 -32.4,15.23 0,0 -38.78,-6.39 -39.75,-47.16 0,0 -1.49,-55.52 31.41,-61.91 0,0 27.48,-7.37 45.64,25.06l21.6 -14.25c0,0 -15.71,-33.41 -64.3,-30.46 0,0 -66.26,1.48 -70.68,69.26 0,0 2.94,72.72 65.77,72.72 0,0 51.05,6.88 75.1,-20.63l1.48 -1.48 0.49 -38.31zm30.44 60.42l0 -141.98 79.51 0c0,0 52.02,7.37 45.64,52.08 0,0 -3.93,26.52 -34.36,32.91l36.33 56.99 -50.07 0 -30.93 -64.35c0,0 -1.95,-6.4 1.97,-6.4l12.27 0c0,0 21.6,-3.93 20.62,-25.54 0,0 0,-25.54 -23.07,-27.02l-16.69 0 0 123.31 -41.22 0zm206.63 -56.5l-35.33 0 16.19 -47.65 19.14 47.65zm-73.13 56.5l45.16 -141.98 37.8 0 58.39 141.98 -47.11 0 -16.2 -40.29 -45.15 0 -13.26 40.29 -19.63 0zm161.48 0l0 -141.98 79.52 0c0,0 52.03,7.37 45.16,52.08 0,0 -3.93,26.52 -33.87,32.91l35.84 56.99 -50.07 0 -30.93 -64.35c0,0 -1.47,-6.4 2.46,-6.4l12.27 0c0,0 21.59,-3.93 20.62,-25.54 0,0 0,-25.54 -23.07,-27.02l-17.19 0 0 123.31 -40.74 0zm249.84 -76.15l0 -44.7 14.73 0c0,0 26.01,2.94 24.54,24.56 0,0 -3.43,20.14 -19.63,20.14l-19.64 0zm-40.24 76.15l0 -141.98 71.17 0c0,0 54.97,12.28 48.6,53.05 0,0 -6.39,34.89 -45.66,32.92l-32.88 0 0 56.01 -41.23 0zm197.81 -56.5l-35.35 0 16.2 -47.65 19.15 47.65zm-73.14 56.5l45.15 -141.98 38.29 0 57.92 141.98 -46.63 0 -16.68 -40.29 -45.16 0 -12.77 40.29 -20.12 0zm158.06 0l0 -141.98 79.51 0c0,0 52.02,7.37 45.65,52.08 0,0 -3.94,26.52 -34.35,32.91l36.31 56.99 -50.06 0 -30.93 -64.35c0,0 -1.96,-6.4 1.97,-6.4l12.27 0c0,0 21.59,-3.93 20.61,-25.54 0,0 0,-25.54 -23.07,-27.02l-16.69 0 0 123.31 -41.22 0zm208.6 -56.5l-35.83 0 16.69 -47.65 19.14 47.65zm-73.62 56.5l45.15 -141.98 38.29 0 57.92 141.98 -46.63 0 -16.68 -40.29 -45.17 0 -12.76 40.29 -20.12 0zm264.07 -22.11l0 -99.24 20.61 0c0,0 39.27,9.83 35.84,53.56 0,0 -4.43,46.67 -33.87,46.17l-22.58 -0.49zm-39.76 22.11l0 -141.98 68.23 0c0,0 77.06,9.34 70.68,77.13 0,0 -8.83,62.4 -65.78,64.85l-73.13 0zm229.23 -56.5l-35.35 0 16.2 -47.65 19.15 47.65zm-73.15 56.5l45.17 -141.98 37.79 0 58.41 141.98 -47.12 0 -16.2 -40.29 -45.15 0 -13.26 40.29 -19.64 0zm-1807.68 -2339.98l-10.31 16.72c0,0 -36.81,-19.17 -37.31,-55.53 0,0 -8.83,-68.78 44.67,-85.97 0,0 58.91,-19.65 92.28,22.59 0,0 16.68,19.65 14.73,55.03 0,0 3.92,43.24 -28.47,62.89l-15.22 -18.66c0,0 34.84,-19.67 29.94,-44.72 0,0 -0.98,-34.89 -53.01,-36.36 0,0 -71.18,-3.43 -67.74,45.7 0,0 5.4,21.11 25.53,33.89l4.91 4.42zm29.85 613.13l47.62 0 0.48 15.22c0,0 -3.93,26.04 -26.98,24.57 0,0 -21.12,-3.93 -21.12,-19.65l0 -20.14zm-81.48 -40.29l151.67 0 0 71.72c0,0 -12.76,55.03 -56.44,49.13 0,0 -37.3,-6.38 -35.34,-46.17l0 -33.41 -59.89 0 0 -41.27zm-0.48 -215.68l152.15 0 0 79.11c0,0 -7.85,52.07 -55.96,45.68 0,0 -27.97,-3.94 -34.84,-34.39l-61.35 36.35 0 -50.1 69.21 -30.95c0,0 6.87,-1.47 6.87,2.45l0 12.29c0,0 3.91,21.61 27,20.64 0,0 27.97,0 29.44,-23.59l0 -16.7 -132.52 0 0 -40.79zm0 504.54l152.15 0 0 79.6c0,0 -7.85,52.08 -55.96,45.69 0,0 -27.97,-3.93 -34.84,-34.4l-61.35 36.37 0 -50.11 69.21 -30.96c0,0 6.87,-1.96 6.87,1.97l0 12.28c0,0 3.91,21.62 27,20.64 0,0 27.97,0.48 29.44,-23.1l0 -16.69 -132.52 0 0 -41.29zm60.86 -595.91l0 -37.83 50.55 17.2 -50.55 20.63zm-60.38 -78.61l151.67 48.64 0 40.78 -151.67 61.9 0 -50.12 43.2 -17.68 0 -48.14 -43.2 -13.76 0 -21.62zm60.38 588.07l0 -38.33 50.55 17.7 -50.55 20.63zm-60.38 -78.61l151.67 48.64 0 40.77 -151.67 61.91 0 -50.11 43.2 -17.7 0 -48.14 -43.2 -13.75 0 -21.62zm60.38 381.73l0 -38.32 50.55 17.68 -50.55 20.64zm-60.38 -78.61l151.67 48.64 0 40.78 -151.67 61.89 0 -50.11 43.2 -17.68 0 -48.14 -43.2 -13.76 0 -21.62zm151.67 -830.26l-151.67 0 0 -41.27 67.25 0 0 -43.73 -67.25 0 0 -41.75 151.67 0 0 42.25 -63.32 0 0 43.23 63.32 0 0 41.27zm0 -322.77l-117.8 0c0,0 -31.9,-5.42 -33.87,-39.31l0 -34.89c0,0 4.92,-38.31 40.74,-43.21l110.93 0 0 41.26 -108.47 0c0,0 -21.6,3.92 -21.6,28.49 0,0 1.47,25.05 29.46,27.02l100.61 -0.99 0 21.63z"/>
    <polygon class="fil7" points="3039.29,2706.54 1105.38,2705.06 1107.83,55.58 "/>
    <polygon class="fil6" points="1189.31,1089.24 1471.55,1778.99 1557.45,1611.96 1720.9,2164.65 1836.73,2013.84 1965.81,2464.33 2041.9,2328.25 2231.86,2556.69 2071.84,2007.44 2017.35,2181.36 1853.43,1638.49 1769.01,1782.43 1652.17,1253.33 1509.84,1478.34 1366.02,953.64 "/>
    <polygon class="fil0" points="1581.78,705.27 1746.37,928.88 2991.57,79.86 1835.95,1050.59 2042.77,1331.58 2996.88,106.36 2139.07,1462.41 2350.27,1749.37 3039.27,48.06 "/>
   </g>
   <g id="Layer_1_2_">
    <path class="fil8" d="M17608.83 605.52c0,9.98 0,9.98 -9.99,9.98 -49.9,9.98 -79.84,9.98 -89.82,29.94 -19.96,9.99 -29.94,29.95 -29.94,69.87l-9.99 648.72c0,9.98 0,9.98 -9.98,9.98 0,0 -9.99,0 -19.96,-9.98l-568.87 -648.73 -9.98 508.99 0 9.99c0,29.94 9.98,49.9 29.94,59.88 19.96,9.97 49.91,19.96 99.81,29.94 9.98,0 9.98,9.98 9.98,9.98 0,9.99 0,19.96 -9.98,19.96 -19.96,0 -49.9,0 -79.84,0 -29.93,0 -59.88,0 -69.86,0 -19.96,0 -39.92,0 -69.87,0 -29.94,0 -49.9,0 -69.86,0 -9.98,0 -9.98,-9.98 -9.98,-19.96 0,-9.98 0,-9.98 9.98,-9.98 49.9,-9.98 79.84,-9.98 89.82,-29.94 19.96,-9.99 29.95,-29.95 29.95,-69.87l19.96 -518.98 0 0c0,-29.94 -9.99,-49.9 -29.95,-59.87 -19.96,-9.98 -49.9,-19.96 -99.8,-29.95 -9.99,0 -9.99,-9.98 -9.99,-19.96 0,-9.97 0,-19.96 9.99,-19.96 9.98,0 29.94,0 49.9,0 19.96,0 39.92,0 49.9,0 9.99,0 29.95,0 49.91,0 19.96,0 29.94,0 49.9,0l528.95 598.82 0 -469.07c0,-29.94 -9.98,-49.9 -29.94,-69.86 -19.96,-9.98 -49.9,-19.96 -99.81,-29.94 -9.98,0 -9.98,-9.99 -9.98,-9.99 0,-9.98 0,-19.96 9.98,-19.96 19.96,0 49.91,0 79.84,0 29.94,0 59.88,0 69.87,0 19.96,0 39.92,0 69.86,0 29.94,0 49.9,0 69.86,0 9.99,9.99 9.99,19.97 9.99,29.95z"/>
    <path class="fil8" d="M16391.23 375.97c0,9.99 0,19.96 -9.98,19.96l-189.63 119.77 -9.98 -0.01c0,0 -9.98,0 -9.98,-9.98 0,-9.98 -9.98,-9.98 -9.98,-9.98 0,0 0,-9.99 9.98,-9.99l169.66 -159.68 9.99 -9.99c9.98,0 19.96,9.99 29.94,19.96 0,19.99 9.98,29.96 9.98,39.94z"/>
    <path class="fil8" d="M16610.8 974.79c0,119.77 -39.92,209.59 -109.78,289.43 -79.84,69.86 -169.67,109.78 -299.42,109.78 -119.76,0 -219.56,-39.92 -289.43,-109.78 -79.83,-69.86 -109.78,-169.66 -109.78,-289.43 0,-119.76 39.92,-209.59 109.78,-289.43 79.84,-79.84 169.67,-109.78 289.43,-109.78 119.77,0 219.57,39.92 289.43,109.78 89.82,79.84 119.77,169.67 119.77,289.43l0 0zm-119.77 0c0,-109.78 -29.94,-199.6 -79.84,-269.47 -49.89,-69.86 -119.76,-99.8 -209.59,-99.8 -89.82,0 -159.68,29.94 -209.59,99.8 -49.9,69.87 -79.84,159.69 -79.84,269.47 0,109.78 29.95,199.61 79.84,259.49 49.91,69.86 119.77,99.8 209.59,99.8 89.83,0 159.69,-29.94 209.59,-99.8 49.9,-59.88 79.84,-149.71 79.84,-259.49z"/>
    <path class="fil8" d="M15752.49 765.2c0,9.99 -9.99,9.99 -19.96,9.99 -9.99,0 -9.99,0 -9.99,-9.99 -19.95,-49.9 -39.91,-89.82 -69.86,-109.78 -29.94,-19.96 -69.86,-29.94 -129.74,-29.94l-49.9 0c-19.96,0 -29.94,0 -39.92,9.99 -9.98,9.98 -9.98,19.96 -9.98,29.94l0 558.9c0,29.94 0,39.92 9.98,49.9 9.99,9.99 19.96,19.96 29.95,19.96 19.96,9.99 39.92,9.99 69.86,9.99 9.99,0 9.99,9.98 9.99,9.98 0,9.98 0,19.96 -9.99,19.96 -19.96,0 -49.9,0 -89.82,0 -29.95,0 -59.88,0 -79.84,0 -19.96,0 -49.9,0 -79.84,0 -29.94,0 -59.88,0 -89.82,0 -9.99,0 -9.99,-9.98 -9.99,-19.96 0,-9.98 0,-9.98 9.99,-9.98 39.92,-9.99 79.84,-9.99 89.82,-19.96 19.96,-9.99 19.96,-29.95 19.96,-69.87l-0.02 -548.93c0,-19.96 0,-29.94 -9.98,-29.94 -9.98,-9.98 -19.96,-9.98 -39.92,-9.98l-39.92 0c-49.9,0 -99.81,9.99 -139.73,39.92 -39.91,29.94 -69.86,59.88 -79.83,99.81 0,9.98 -9.99,9.98 -9.99,9.98 -9.98,0 -19.96,0 -19.96,-9.98 19.96,-59.88 39.92,-119.77 59.88,-189.63 49.9,9.98 169.66,19.96 339.33,19.96 179.65,0 299.42,-9.98 349.31,-19.96 9.99,49.9 19.97,109.78 39.93,189.62z"/>
    <path class="fil8" d="M14954.07 605.52c0,9.98 0,19.96 -9.99,19.96 -49.9,9.98 -79.84,9.98 -89.82,29.94 -19.96,9.98 -19.96,29.94 -19.96,69.86l0 349.31c0,99.81 -19.96,179.65 -69.86,229.55 -49.91,59.88 -109.79,79.84 -199.61,79.84 -99.81,0 -179.65,-29.94 -229.55,-79.84 -59.88,-49.9 -79.84,-129.74 -79.84,-219.57l0 -369.27c0,-29.94 0,-39.92 -9.98,-49.9 -9.99,-9.99 -19.96,-19.96 -29.95,-29.95 -9.98,-9.98 -39.91,-9.98 -69.86,-9.98 -9.98,0 -9.98,-9.99 -9.98,-19.96 0,-9.98 0,-19.96 9.98,-19.96 19.96,0 49.9,0 89.82,0 29.95,0 59.88,0 79.84,0 19.96,0 49.91,0 79.84,0 29.94,0 59.88,0 89.83,0 9.98,0 9.98,9.98 9.98,19.96 0,9.97 0,19.96 -9.98,19.96 -29.95,0 -59.88,9.98 -69.87,9.98 -19.96,9.99 -29.94,9.99 -29.94,19.96 -9.96,9.99 -9.96,29.95 -9.96,49.91l0 349.31c0,89.82 19.96,159.69 49.9,199.61 29.95,39.92 89.83,59.88 169.66,59.88 149.71,0 219.57,-89.83 219.57,-279.45l0 -319.37c0,-29.94 -9.98,-59.88 -19.96,-69.86 -19.96,-9.99 -49.9,-19.96 -89.82,-29.95 -9.99,0 -9.99,-9.98 -9.99,-19.96 0,-9.97 0,-19.96 9.99,-19.96 19.96,0 39.92,0 69.86,0 29.94,0 49.9,0 69.86,0 19.96,0 39.92,0 69.87,0 29.94,0 49.9,0 69.86,0 -39.93,9.99 -29.94,19.97 -29.94,29.95z"/>
    <path class="fil8" d="M14095.76 1334.08c0,9.99 0,19.96 -9.99,19.96 -29.94,0 -59.88,0 -99.8,0 -29.95,0 -59.88,0 -79.84,0 -29.95,0 -59.88,0 -89.83,0 -39.92,0 -69.86,0 -99.8,0 -9.99,0 -9.99,-9.98 -9.99,-19.96 0,-9.98 0,-19.96 9.99,-19.96 39.92,0 59.88,-9.98 79.84,-9.98 19.96,-9.98 19.96,-19.96 19.96,-39.92 0,-9.98 0,-29.94 -9.99,-49.9l-69.86 -209.59 -259.47 0.01 -69.86 189.63c-9.99,29.94 -9.99,49.9 -9.99,59.87 0,39.92 29.95,59.88 99.81,59.88 9.98,0 9.98,9.99 9.98,19.96 0,9.99 0,19.96 -9.98,19.96 -29.94,0 -49.9,0 -79.84,0 -29.94,0 -49.9,0 -79.84,0 -19.96,0 -39.92,0 -69.86,0 -29.95,0 -49.91,0 -69.87,0 -9.98,0 -9.98,-9.98 -9.98,-19.96 0,-9.98 0,-19.96 9.98,-19.96 29.95,0 59.88,-9.98 79.84,-29.94 19.96,-19.96 39.92,-49.9 59.88,-99.81l289.43 -718.58c0,-9.98 9.99,-9.98 19.96,-9.98 9.99,0 19.96,0 19.96,9.98l259.49 718.58c9.98,39.92 29.94,69.87 59.88,89.83 19.96,19.96 59.87,29.94 99.8,39.92 9.99,9.98 9.99,9.98 9.99,19.96l0 0zm-379.26 -369.27l-109.78 -319.37 -119.76 319.38 229.54 -0.01z"/>
    <path class="fil8" d="M12858.2 974.79c0,109.78 -39.92,209.59 -109.78,279.45 -79.84,69.86 -179.65,99.8 -309.39,99.8 -19.96,0 -49.9,0 -99.81,0 -49.9,0 -79.83,0 -99.8,0 -69.87,0 -139.73,0 -199.61,0 -9.98,0 -9.98,-9.98 -9.98,-19.96 0,-9.98 0,-9.98 9.98,-9.98 29.95,0 49.91,-9.98 69.87,-9.98 19.96,-9.99 29.94,-9.99 29.94,-19.96 9.98,-9.99 9.98,-29.95 9.98,-49.91l0 -528.95c0,-29.94 0,-39.92 -9.98,-49.9 -9.98,-9.99 -19.96,-19.96 -29.94,-29.95 -19.96,-9.98 -39.92,-9.98 -69.87,-9.98 -9.98,0 -9.98,-9.99 -9.98,-19.96 0,-9.98 0,-19.96 9.98,-19.96 39.92,0 109.78,0 199.61,0 19.96,0 49.9,0 99.8,0 49.91,0 79.84,0 99.81,0 129.74,0 229.55,39.92 309.39,109.78 69.86,69.87 109.78,169.68 109.78,279.46l0 0zm-129.74 0c0,-99.81 -29.94,-179.64 -89.82,-249.51 -59.88,-69.86 -129.75,-99.8 -219.57,-99.8l0 0 -99.81 0c-39.91,0 -69.86,19.96 -69.86,59.88l0 558.9c0,39.92 19.96,59.88 69.86,59.88l99.81 0c89.82,0 159.69,-29.94 219.57,-99.81 69.86,-49.89 89.82,-129.74 89.82,-229.54z"/>
    <path class="fil8" d="M11989.92 1344.06c0,9.98 0,19.96 -9.99,19.96 -29.94,0 -49.9,0 -89.82,0 -29.94,0 -49.9,0 -69.86,0 -19.96,0 -49.91,0 -79.84,0 -39.92,0 -69.87,0 -89.83,0 -9.98,0 -9.98,-9.98 -9.98,-19.96 0,-9.98 0,-19.96 9.98,-19.96 29.95,0 59.88,-9.98 69.87,-9.98 9.98,-9.99 19.96,-19.96 19.96,-29.95 0,-9.98 0,-19.96 -9.99,-49.9l-59.88 -189.63 -229.54 0.01 -59.88 169.67c-9.99,19.96 -9.99,39.92 -9.99,49.9 0,29.94 29.95,49.9 89.83,49.9 0,0 9.98,9.99 9.98,19.96 0,9.99 0,19.96 -9.98,19.96 -19.96,0 -49.91,0 -69.87,0 -29.94,0 -49.9,0 -69.86,0 -19.96,0 -39.92,0 -59.88,0 -29.94,0 -49.9,0 -59.88,0 -9.98,0 -9.98,0 -9.98,-9.98 0,-9.98 0,-19.96 9.98,-19.96 29.94,0 59.88,-9.98 69.86,-29.94 19.96,-9.99 39.92,-39.92 59.88,-89.83l259.49 -638.73c0,-9.99 9.98,-9.99 19.96,-9.99 9.97,0 9.98,0 19.96,9.99l229.55 638.73c9.98,39.92 29.94,59.88 49.9,79.84 19.96,19.96 49.9,29.95 89.82,29.95 -9.97,9.98 -9.97,19.96 -9.97,29.94l0 0zm-339.34 -329.35l-99.8 -279.44 -109.78 279.44 209.58 0z"/>
    <path class="fil8" d="M11131.61 974.79c0,109.78 -39.92,209.59 -109.79,279.45 -79.83,69.86 -179.64,99.8 -309.38,99.8 -19.96,0 -49.91,0 -99.81,0 -49.9,0 -79.84,0 -99.81,0 -69.86,0 -139.72,0 -199.6,0 -9.99,0 -9.99,-9.98 -9.99,-19.96 0,-9.98 0,-9.98 9.99,-9.98 29.94,0 49.9,-9.98 69.86,-9.98 19.96,-9.99 29.94,-9.99 29.94,-19.96 9.99,-9.99 9.99,-29.95 9.99,-49.91l0 -528.95c0,-29.94 0,-39.92 -9.99,-49.9 -9.98,-9.99 -19.96,-19.96 -29.93,-29.94 -19.96,-9.98 -39.92,-9.98 -69.87,-9.98 -9.98,0 -9.98,-9.99 -9.98,-19.96 0,-9.98 0,-19.96 9.98,-19.96 39.92,0 109.79,0 199.61,0 19.96,0 49.9,0 99.81,0 49.9,0 79.84,0 99.8,0 129.75,0 229.55,39.92 309.39,109.78 69.86,69.86 109.78,169.67 109.78,279.45l0 0zm-119.76 0c0,-99.81 -29.95,-179.64 -89.82,-249.51 -59.88,-69.86 -129.75,-99.8 -219.57,-99.8l0 0 -99.81 0c-39.92,0 -69.86,19.96 -69.86,59.88l0 558.9c0,39.92 19.96,59.88 69.86,59.88l99.81 0c89.82,0 159.69,-29.94 219.57,-99.81 59.87,-49.89 89.82,-129.74 89.82,-229.54z"/>
    <path class="fil8" d="M10203.44 1344.06c0,9.98 0,19.96 -9.98,19.96 -19.96,0 -49.91,0 -89.83,0 -29.94,0 -59.87,0 -79.83,0 -19.96,0 -49.91,0 -79.84,0 -29.94,0 -59.88,0 -89.83,0 -9.98,0 -9.98,-9.98 -9.98,-19.96 0,-9.98 0,-9.98 9.98,-9.98 39.92,-9.99 79.84,-9.99 89.83,-19.96 19.96,-9.99 19.96,-29.95 19.96,-69.87l0 -528.95c0,-29.94 0,-39.92 -9.99,-49.9 -9.98,-9.99 -19.96,-19.96 -29.94,-19.96 -19.96,-9.98 -39.92,-9.98 -69.86,-9.98 -9.99,0 -9.99,-9.98 -9.99,-19.96 0,-9.98 0,-19.96 9.99,-19.96 29.94,0 49.9,0 89.82,0 29.94,0 59.88,0 79.84,0 19.96,0 49.9,0 79.84,0 29.93,0 59.88,0 89.82,0 9.98,0 9.98,9.98 9.98,19.96 0,9.98 0,19.96 -9.98,19.96 -29.94,0 -49.9,9.98 -69.86,9.98 -19.96,9.99 -29.95,9.99 -29.95,19.96 -9.96,9.98 -9.96,29.94 -9.96,49.9l0 518.98c0,29.94 0,39.92 9.98,49.9 9.98,9.98 19.96,19.96 29.94,19.96 19.96,9.98 39.92,9.98 69.87,9.98 -0.01,9.98 9.97,19.96 9.97,29.94z"/>
    <path class="fil8" d="M9734.37 1134.48c0,69.86 -19.96,129.74 -69.87,179.64 -39.92,39.92 -99.8,69.87 -179.64,69.87 -29.95,0 -69.86,-9.99 -119.77,-19.96 -39.92,-9.99 -79.84,-19.96 -99.81,-19.96 0,-59.88 -9.98,-129.75 -9.98,-189.63 0,-9.99 9.98,-9.99 19.96,-9.99 9.98,0 9.98,0 9.98,9.99 19.96,69.86 49.91,119.76 79.84,149.7 29.94,29.94 69.87,39.92 129.75,39.92 39.92,0 79.84,-9.98 99.8,-39.92 19.96,-29.94 39.92,-59.88 39.92,-109.78 0,-29.95 -9.98,-59.88 -29.94,-79.84 -19.96,-29.95 -69.86,-59.88 -139.73,-99.81 -79.84,-49.9 -129.74,-89.82 -159.68,-119.77 -19.96,-29.94 -39.92,-69.86 -39.92,-109.78 0,-59.88 19.96,-109.78 69.86,-149.7 39.92,-39.92 99.81,-59.88 169.66,-59.88 29.95,0 59.88,0 89.82,9.98 29.95,9.99 59.88,9.99 79.84,9.99 0,69.86 9.99,119.76 19.96,169.66 0,9.98 0,9.98 -9.98,9.98 -9.98,0 -19.96,0 -19.96,-9.98 -9.98,-59.88 -29.94,-99.81 -59.88,-119.77 -19.96,-19.96 -59.88,-39.92 -99.81,-39.92 -39.92,0 -69.86,9.99 -99.8,39.92 -19.96,19.96 -39.92,59.88 -39.92,99.81 0,29.94 9.98,49.9 29.94,79.84 19.96,19.96 69.86,59.88 129.74,99.81 79.84,49.9 129.75,89.82 159.69,119.76 39.94,19.95 49.93,49.89 49.93,89.82z"/>
    <path class="fil8" d="M9205.41 1344.06c0,9.98 0,19.96 -9.98,19.96 -9.98,0 -39.92,0 -69.86,0 -19.96,0 -39.92,0 -39.92,0 -9.99,0 -29.95,0 -49.91,0 -19.96,0 -39.92,0 -49.9,0l-169.66 -269.47c-19.96,-39.92 -39.92,-59.88 -59.88,-69.86 -9.99,-9.99 -39.92,-19.96 -89.82,-19.96l0 239.53c0,29.94 0,39.92 9.98,49.9 9.98,9.99 19.96,19.96 29.94,19.96 19.96,9.99 39.92,9.99 69.87,9.99 9.98,0 9.98,9.98 9.98,9.98 0,9.99 0,19.96 -9.98,19.96 -19.96,0 -49.91,0 -89.83,0 -29.94,0 -59.88,0 -79.84,0 -19.96,0 -49.9,0 -79.83,0 -29.94,0 -59.88,0 -89.83,0 -9.98,0 -9.98,-9.98 -9.98,-19.96 0,-9.98 0,-9.98 9.98,-9.98 29.95,0 49.91,-9.99 69.87,-9.99 19.96,-9.98 29.94,-9.98 29.94,-19.96 9.98,-9.98 9.98,-29.94 9.98,-49.9l-0.02 -528.96c0,-29.94 0,-39.92 -9.98,-49.9 -9.99,-9.99 -19.96,-19.96 -29.94,-29.94 -19.96,-9.98 -39.92,-9.98 -69.86,-9.98 -9.99,0 -9.99,-9.99 -9.99,-19.96 0,-9.98 0,-19.96 9.99,-19.96 19.96,0 49.9,0 89.82,0 29.94,0 59.88,0 79.84,0 19.96,0 49.9,0 79.84,0 29.93,0 59.88,0 89.82,0 79.84,0 149.7,19.96 189.63,49.9 49.9,29.94 69.86,79.84 69.86,149.7 0,39.92 -9.98,79.84 -39.92,109.78 -29.93,29.95 -69.86,59.88 -119.76,79.84l169.66 279.45c9.98,19.96 29.94,39.92 59.88,49.9 19.96,9.99 49.9,19.96 89.82,19.96 9.99,0.01 9.99,9.99 9.99,19.97l0 0zm-279.45 -558.9c0,-109.78 -49.9,-159.68 -139.73,-159.68 -29.94,0 -49.9,0 -69.86,9.98 -19.96,0 -29.93,9.98 -29.93,19.96 -9.99,9.98 -9.99,29.94 -9.99,59.88l0 249.51c19.96,0 49.91,0 79.84,0 59.88,0 99.81,-9.99 129.74,-39.92 29.95,-29.95 39.93,-79.84 39.93,-139.73z"/>
    <path class="fil8" d="M8397.01 1174.4c-29.95,59.88 -49.91,119.76 -69.87,179.64 -139.72,0 -239.52,-9.98 -299.41,-9.98 -59.89,0 -159.68,0 -299.41,9.98 -9.99,0 -9.99,-9.98 -9.99,-19.96 0,-9.98 0,-9.98 9.99,-9.98 29.94,0 49.9,-9.98 69.86,-9.98 19.96,-9.99 29.95,-9.99 29.95,-19.96 9.98,-9.99 9.98,-29.95 9.98,-49.91l0 -528.95c0,-29.94 0,-39.92 -9.98,-49.9 -9.99,-9.99 -19.96,-19.96 -29.94,-29.94 -19.96,-9.98 -39.92,-9.98 -69.86,-9.98 -9.99,0 -9.99,-9.99 -9.99,-19.96 0,-9.98 0,-19.96 9.99,-19.96 89.82,0 189.63,9.98 289.43,9.98 99.79,0 189.63,0 289.42,-9.98 9.99,59.88 19.96,109.78 39.92,169.66 0,9.98 -9.98,9.98 -19.96,9.98 -9.97,0 -9.98,0 -9.98,-9.98 -29.94,-89.82 -89.82,-129.74 -179.65,-129.74l-109.78 0c-39.92,0 -59.88,19.96 -59.88,69.87l0 249.5 139.73 0c39.92,0 59.88,-9.99 79.84,-29.95 9.98,-19.96 19.96,-49.9 29.94,-89.82 0,-9.98 9.98,-9.98 19.96,-9.98 9.98,0 19.96,0 19.96,9.98 0,19.96 0,39.92 0,69.86 0,29.95 0,49.91 0,69.87 0,19.96 0,39.92 0,69.86 0,29.94 0,49.9 0,69.86 0,9.99 -9.98,9.99 -19.96,9.99 -9.98,0 -19.96,0 -19.96,-9.99 -9.98,-49.9 -19.96,-79.83 -29.94,-89.82 -9.99,-19.96 -39.92,-29.94 -69.87,-29.94l-139.71 0 0 259.49c0,39.92 19.96,69.86 59.88,69.86l119.76 0c39.92,0 89.82,-9.98 129.74,-39.92 39.92,-29.94 69.87,-59.88 99.81,-109.78 0,0 0,0 9.98,0 9.99,0 9.99,0 9.99,0 -19.98,-0.01 -9.99,-0.01 -9.99,9.98z"/>
    <path class="fil8" d="M7688.41 595.54c0,9.98 0,19.96 -9.99,19.96 -29.94,0 -59.88,9.98 -69.86,19.96 -19.96,9.98 -39.92,39.92 -59.88,89.82l-279.44 638.74c0,9.98 -9.99,9.98 -19.96,9.98 -9.98,0 -9.99,0 -9.99,-9.98l-249.51 -638.74c-9.98,-39.92 -19.96,-59.88 -29.94,-69.86 -9.98,-9.98 -19.96,-19.96 -39.92,-29.94 -19.96,-9.99 -39.92,-9.99 -69.86,-9.99 0,0 0,0 -9.99,0l0.01 -9.97c0,-9.99 0,-19.96 9.99,-19.96 19.95,0 49.9,0 79.83,0 29.94,0 49.91,0 79.84,0 19.96,0 49.91,0 79.84,0 29.94,0 59.88,0 89.83,0 9.98,0 9.98,9.98 9.98,19.96 0,9.97 0,19.96 -9.98,19.96 -29.95,0 -59.88,9.98 -69.87,9.98 -19.96,0 -19.96,9.98 -19.96,29.94 0,9.99 0,29.95 9.99,49.91l189.63 499.01 199.6 -489.03c9.99,-19.96 9.99,-39.92 9.99,-49.9 0,-39.92 -29.95,-59.88 -99.81,-59.88 0,0 -9.99,-9.99 -9.99,-19.96 0,-9.98 0,-19.96 9.99,-19.96 19.96,0 39.92,0 69.86,0 29.95,0 59.88,0 79.84,0 19.96,0 39.92,0 59.88,0 29.94,0 49.9,0 69.86,0 9.99,9.97 9.99,9.97 9.99,19.95z"/>
    <path class="fil8" d="M6770.22 1344.06c0,9.98 0,19.96 -9.99,19.96 -19.96,0 -49.9,0 -89.82,0 -29.94,0 -59.88,0 -79.84,0 -19.96,0 -49.9,0 -79.84,0 -29.93,0 -59.88,0 -89.82,0 -9.98,0 -9.98,-9.98 -9.98,-19.96 0,-9.98 0,-9.98 9.98,-9.98 39.92,-9.99 79.84,-9.99 89.82,-19.96 19.96,-9.99 19.96,-29.95 19.96,-69.87l-0.01 -528.95c0,-29.94 0,-39.92 -9.98,-49.9 0,-19.96 -9.98,-29.95 -29.94,-29.95 -19.96,-9.98 -39.92,-9.98 -69.87,-9.98 -9.98,0 -9.98,-9.99 -9.98,-19.96 0,-9.98 0,-19.96 9.98,-19.96 29.95,0 49.91,0 89.83,0 29.94,0 59.88,0 79.84,0 19.96,0 49.9,0 79.84,0 29.93,0 59.87,0 89.82,0 9.98,0 9.98,9.98 9.98,19.96 0,9.97 0,19.96 -9.98,19.96 -29.95,0 -49.91,9.98 -69.86,9.98 -19.95,9.99 -29.92,9.99 -29.92,19.97 -9.99,9.98 -9.99,29.94 -9.99,49.9l0 518.98c0,29.94 0,39.92 9.99,49.9 9.98,9.99 19.96,19.96 29.94,19.96 19.96,9.99 39.92,9.99 69.86,9.99 9.98,19.95 9.98,29.93 9.98,39.91z"/>
    <path class="fil8" d="M6341.06 605.52c0,9.98 0,9.98 0,0 -49.9,19.96 -79.84,19.96 -99.8,39.92 -19.96,9.98 -29.95,29.94 -29.95,69.86l-9.98 648.72c0,9.98 0,9.98 -9.99,9.98 0,0 -9.98,0 -19.95,-9.98l-568.89 -648.72 -9.96 518.98 0 9.98c0,29.94 9.99,49.9 29.95,59.88 19.96,9.98 49.9,19.96 99.8,29.94 9.99,0 9.99,9.99 9.99,9.99 0,9.98 0,19.96 -9.99,19.96 -19.96,0 -49.9,0 -79.83,0 -29.94,0 -59.88,0 -69.87,0 -19.96,0 -39.92,0 -69.86,0 -29.94,0 -49.9,0 -69.86,0 -9.99,0 -9.99,-9.99 -9.99,-19.96 0,-9.99 0,-9.99 9.99,-9.99 49.9,-9.98 79.83,-9.98 89.82,-29.94 19.96,-9.98 29.94,-29.94 29.94,-69.86l19.96 -518.98 0 0c0,-29.94 -9.98,-49.9 -29.94,-59.88 -19.96,-9.98 -49.9,-19.96 -99.81,-29.94 -9.98,0 -9.98,-9.99 -9.98,-19.96 0,-9.98 0,-19.96 9.98,-19.96 9.99,0 29.95,0 49.91,0 19.95,0 39.91,0 49.9,0 9.98,0 29.94,0 49.9,0 19.96,0 29.95,0 49.91,0l528.95 598.81 -0.01 -479.05c0,-29.94 -9.98,-49.9 -29.94,-69.86 -19.96,-9.98 -49.91,-19.96 -99.81,-29.94 -9.98,0 -9.98,-9.99 -9.98,-9.99 0,-9.98 0,-19.96 9.98,-19.96 19.96,0 49.9,0 79.84,0 29.94,0 59.88,0 69.86,0 19.96,0 39.92,0 69.87,0 29.94,0 49.9,0 69.86,0 9.98,9.99 9.98,19.97 9.98,29.95z"/>
    <path class="fil8" d="M5382.95 505.72c0,9.98 0,19.96 -9.98,19.96 -49.9,9.98 -89.82,19.96 -109.78,29.94 -19.96,9.98 -29.95,39.92 -29.95,79.84l0 389.24c0,109.78 -29.94,199.6 -79.83,259.48 -49.91,59.88 -129.75,89.82 -229.55,89.82 -109.79,0 -199.61,-29.94 -259.49,-89.82 -59.88,-59.88 -89.82,-139.73 -89.82,-249.51l0 -409.19c0,-29.94 0,-49.9 -9.99,-59.88 -9.98,-9.97 -19.96,-19.96 -39.92,-29.94 -19.96,-9.98 -49.9,-9.98 -79.83,-19.96 -9.99,0 -9.99,-9.98 -9.99,-19.96 0,-9.97 0,-19.96 9.99,-19.96 29.94,0 59.87,0 99.8,0 39.93,0 69.87,0 89.83,0 29.94,0 59.87,0 89.82,0 39.92,0 69.86,0 99.8,0 9.99,0 9.99,9.99 9.99,19.96 0,9.98 0,19.96 -9.99,19.96 -39.91,0 -59.87,9.99 -79.83,19.96 -19.96,9.98 -29.95,19.96 -39.92,29.94 -10,9.98 -10,29.94 -10,59.88l0 399.22c0,99.8 19.96,179.64 59.88,229.54 39.92,49.91 99.81,69.87 189.63,69.87 159.69,0 249.51,-99.81 249.51,-309.39l-0.01 -389.24c0,-39.92 -9.98,-59.88 -29.94,-79.84 -19.96,-9.98 -49.9,-19.95 -99.81,-29.94 -9.98,0 -9.98,-9.98 -9.98,-19.96 0,-9.97 0,-19.96 9.98,-19.96 19.96,0 39.92,0 79.84,0 29.95,0 59.88,0 79.84,0 19.96,0 49.91,0 79.84,0 29.94,0 59.88,0 79.84,0 -9.96,9.98 0.02,19.95 0.02,29.94z"/>
    <path class="fil8" d="M22319.53 1174.4c-29.94,59.88 -49.9,119.76 -69.86,179.64 -139.73,0 -239.53,-9.98 -299.41,-9.98 -59.89,0 -159.69,0 -299.42,9.98 -9.98,0 -9.98,-9.98 -9.98,-19.96 0,-9.98 0,-9.98 9.98,-9.98 29.95,0 49.91,-9.98 69.87,-9.98 19.96,-9.99 29.94,-9.99 29.94,-19.96 9.98,-9.99 9.98,-29.95 9.98,-49.91l0 -528.95c0,-29.94 0,-39.92 -9.98,-49.9 -9.98,-9.99 -19.96,-19.96 -29.94,-29.95 -19.96,-9.98 -39.92,-9.98 -69.87,-9.98 -9.98,0 -9.98,-9.99 -9.98,-19.96 0,-9.98 0,-19.96 9.98,-19.96 89.83,0 189.63,9.98 289.43,9.98 99.8,0 189.63,0 289.43,-9.98 9.98,59.88 19.96,109.78 39.92,169.66 0,9.98 -9.98,9.98 -19.96,9.98 -9.98,0 -9.98,0 -9.98,-9.98 -29.95,-89.82 -89.83,-129.74 -179.65,-129.74l-109.77 0.01c-39.92,0 -59.88,19.96 -59.88,69.87l0 249.5 139.72 0c39.92,0 59.88,-9.99 79.84,-29.95 9.99,-19.96 19.96,-49.9 29.95,-89.82 0,-9.98 9.98,-9.98 19.96,-9.98 9.98,0 19.96,0 19.96,9.98 0,19.96 0,39.92 0,69.86 0,29.95 0,49.91 0,69.87 0,19.96 0,39.92 0,69.86 0,29.94 0,49.9 0,69.86 0,9.99 -9.99,9.99 -19.96,9.99 -9.99,0 -19.96,0 -19.96,-9.99 -9.99,-49.9 -19.96,-79.83 -29.95,-89.82 -9.98,-19.96 -39.92,-29.94 -69.86,-29.94l-139.72 0 0 259.49c0,39.92 19.96,69.86 59.88,69.86l119.77 0c39.92,0 89.82,-9.98 129.74,-39.92 39.92,-29.94 69.86,-59.88 99.81,-109.78 0,0 0,0 9.98,0 9.98,0 9.98,0 9.98,0 -19.97,-0.01 -9.99,-0.01 -9.99,9.98z"/>
    <path class="fil8" d="M21561.03 974.79c0,109.78 -39.92,209.59 -109.78,279.45 -79.84,69.86 -179.65,99.8 -309.39,99.8 -19.96,0 -49.91,0 -99.81,0 -49.9,0 -79.84,0 -99.81,0 -69.86,0 -139.72,0 -199.6,0 -9.99,0 -9.99,-9.98 -9.99,-19.96 0,-9.98 0,-9.98 9.99,-9.98 29.94,0 49.9,-9.98 69.86,-9.98 19.96,-9.99 29.94,-9.99 29.94,-19.96 9.99,-9.99 9.99,-29.95 9.99,-49.91l0 -528.95c0,-29.94 0,-39.92 -9.99,-49.9 -9.98,-9.99 -19.95,-19.96 -29.94,-29.95 -19.96,-9.98 -39.92,-9.98 -69.86,-9.98 -9.99,0 -9.99,-9.99 -9.99,-19.96 0,-9.98 0,-19.96 9.99,-19.96 39.92,0 109.78,0 199.6,0 19.96,0 49.91,0 99.81,0 49.9,0 79.84,0 99.81,0 129.74,0 229.55,39.92 309.39,109.78 69.86,69.87 109.78,169.68 109.78,279.46l0 0zm-129.74 0c0,-99.81 -29.95,-179.64 -89.83,-249.51 -59.88,-69.86 -129.74,-99.8 -219.56,-99.8l0 0 -99.81 0c-39.92,0 -69.86,19.96 -69.86,59.88l0 558.9c0,39.92 19.96,59.88 69.86,59.88l99.81 0c89.82,0 159.68,-29.94 219.56,-99.81 59.88,-49.89 89.83,-129.74 89.83,-229.54z"/>
    <path class="fil8" d="M20413.29 1344.06c0,9.98 0,19.96 -9.98,19.96 -29.95,0 -49.91,0 -89.83,0 -29.94,0 -49.9,0 -69.86,0 -19.96,0 -49.9,0 -79.84,0 -39.92,0 -69.86,0 -89.82,0 -9.99,0 -9.99,-9.98 -9.99,-19.96 0,-9.98 0,-19.96 9.99,-19.96 29.94,0 59.88,-9.98 69.86,-9.98 9.98,-9.99 19.96,-19.96 19.96,-29.95 0,-9.98 0,-19.96 -9.98,-49.9l-59.88 -189.63 -229.54 0.01 -59.88 169.67c-9.99,19.96 -9.99,39.92 -9.99,49.9 0,29.94 29.95,49.9 89.83,49.9 0,0 9.98,9.99 9.98,19.96 0,9.99 0,19.96 -9.98,19.96 -19.96,0 -49.91,0 -69.87,0 -29.94,0 -49.9,0 -69.86,0 -19.96,0 -39.92,0 -59.88,0 -29.94,0 -49.9,0 -59.88,0 -9.97,0 -9.98,0 -9.98,-9.98 0,-9.98 0,-19.96 9.98,-19.96 29.94,0 59.88,-9.98 69.86,-29.94 19.96,-9.99 39.92,-39.92 59.88,-89.83l259.49 -638.73c0,-9.99 9.98,-9.99 19.96,-9.99 9.98,0 9.98,0 19.96,9.99l229.55 638.73c9.98,39.92 29.94,59.88 49.9,79.84 19.96,19.96 49.9,29.95 89.82,29.95 -9.98,9.98 -9.98,19.96 -9.98,29.94l0 0zm-329.35 -329.35l-99.81 -279.44 -109.78 279.44 209.59 0z"/>
    <path class="fil8" d="M19584.92 1344.06c0,9.98 0,19.96 -9.98,19.96 -19.96,0 -49.9,0 -89.82,0 -29.95,0 -59.88,0 -79.84,0 -19.96,0 -49.91,0 -79.84,0 -29.94,0 -59.88,0 -89.82,0 -9.99,0 -9.99,-9.98 -9.99,-19.96 0,-9.98 0,-9.98 9.99,-9.98 39.92,-9.99 69.86,-9.99 89.82,-19.96 19.96,-9.99 19.96,-29.95 19.96,-59.88l0 -9.98 -19.96 -538.94 -269.47 668.68c0,9.99 -9.98,9.99 -19.96,9.99 -9.98,0 -9.98,0 -9.98,-9.99l-259.49 -648.72 -39.92 509c0,9.98 0,9.98 0,19.96 0,19.96 9.99,39.92 29.95,49.9 19.96,9.98 49.9,19.96 89.82,19.96 9.98,0 9.98,9.98 9.98,19.96 0,9.98 0,19.96 -9.98,19.96 -19.96,0 -49.91,0 -79.84,0 -29.94,0 -59.88,0 -69.86,0 -19.96,0 -39.92,0 -79.84,0 -29.95,0 -49.91,0 -69.87,0 -9.98,0 -9.98,-9.98 -9.98,-19.96 0,-9.98 0,-9.98 9.98,-9.98 49.91,-9.99 79.84,-9.99 99.81,-29.95 19.96,-9.98 29.94,-29.94 29.94,-69.86l59.88 -518.98c0,-9.98 0,-9.98 0,-19.96 0,-19.96 -9.98,-39.92 -29.94,-49.9 -19.96,-9.99 -49.9,-19.96 -89.82,-19.96 -9.99,0 -9.99,-9.99 -9.99,-19.96l0 -9.97c0,0 0,-9.98 9.98,-9.98 9.98,0 29.94,0 59.88,0 19.96,0 39.92,0 49.9,0 9.99,0 29.95,0 59.88,0 19.96,0 39.92,0 59.88,0l239.53 618.77 249.5 -618.77c9.99,0 29.95,0 59.88,0 19.96,0 39.92,0 49.91,0 19.96,0 29.94,0 59.88,0 19.96,0 39.92,0 59.88,0 9.98,0 9.98,9.98 9.98,19.96 0,9.97 0,19.96 -9.98,19.96 -39.92,9.98 -69.87,9.98 -89.83,19.96 -19.96,9.97 -19.96,29.94 -19.96,59.87l0 9.99 29.95 518.98c0,29.94 9.98,39.92 9.98,49.9 9.98,9.98 19.96,19.96 39.92,19.96 19.96,9.98 39.92,9.98 69.86,9.98 -29.93,9.98 -19.96,19.96 -19.96,29.94z"/>
    <path class="fil8" d="M18477.11 974.79c0,119.77 -39.92,209.59 -109.78,289.43 -79.84,69.86 -169.66,109.78 -299.41,109.78 -119.77,0 -219.57,-39.92 -299.42,-109.78 -79.83,-69.86 -109.78,-169.66 -109.78,-289.43 0,-119.76 39.92,-209.59 109.78,-289.43 79.84,-79.84 169.67,-109.78 289.43,-109.78 119.77,0 219.57,39.92 289.43,109.78 89.83,79.84 129.75,169.67 129.75,289.43l0 0zm-119.76 0c0,-109.78 -29.95,-199.6 -79.84,-269.47 -49.9,-69.86 -119.77,-99.8 -209.59,-99.8 -89.83,0 -159.69,29.94 -209.59,99.8 -49.91,69.87 -79.84,159.69 -79.84,269.47 0,109.78 29.94,199.61 79.84,259.49 49.9,69.86 119.76,99.8 209.59,99.8 89.82,0 159.68,-29.94 209.59,-99.8 49.9,-59.88 79.84,-149.71 79.84,-259.49z"/>
    <path class="fil8" d="M22099.97 3639.53c0,19.96 -9.99,39.92 -19.96,39.92 -59.88,0 -129.75,0 -199.61,-9.99 -59.88,-9.98 -119.77,-9.98 -159.69,-9.98 -49.9,0 -119.76,0 -189.63,9.98 -79.83,9.99 -149.7,9.99 -209.58,9.99 -9.99,0 -19.96,-9.99 -19.96,-39.92 0,-19.96 9.98,-39.92 19.96,-39.92 79.83,0 129.74,-9.98 159.68,-29.94 29.94,-19.96 49.9,-39.92 49.9,-79.84 0,-19.96 -9.98,-59.88 -29.94,-109.79l-149.7 -429.15 -528.95 0 -149.71 399.21c-19.96,49.9 -29.94,89.82 -29.94,119.77 0,79.84 69.86,119.76 209.59,119.76 9.98,0 19.96,9.99 19.96,39.92 0,19.96 -9.99,39.92 -19.96,39.92 -49.9,0 -109.78,0 -169.66,-9.98 -59.88,-9.99 -109.79,-9.99 -159.69,-9.99 -39.92,0 -79.84,0 -139.73,9.99 -59.88,9.98 -109.78,9.98 -149.7,9.98 -9.98,0 -19.96,-9.98 -19.96,-29.94 0,-19.96 9.99,-39.92 29.95,-39.92 69.86,-9.98 129.74,-29.94 169.66,-59.88 39.92,-29.94 79.84,-99.81 129.74,-199.61l598.82 -1477.08c9.98,-9.99 19.96,-19.96 39.92,-19.96 19.96,0 29.94,9.98 39.92,19.96l528.95 1477.08c29.94,79.84 69.86,139.73 119.77,179.65 49.9,39.92 119.76,59.88 199.6,69.86 19.96,19.96 29.95,29.94 29.95,49.9l0 0zm-778.47 -758.5l-229.55 -658.7 -239.52 658.7 469.07 0z"/>
    <path class="fil8" d="M20183.75 1932.9c0,19.96 -9.99,39.92 -19.96,39.92 -109.78,9.98 -179.65,29.94 -219.57,59.88 -39.92,29.94 -59.88,79.84 -59.88,159.69l0 808.4c0,229.55 -59.88,409.2 -169.66,538.94 -109.78,129.74 -269.47,189.63 -469.07,189.63 -229.55,0 -409.2,-59.88 -538.94,-189.63 -129.74,-119.77 -189.63,-289.43 -189.63,-508.99l0 -848.33c0,-59.88 -9.98,-99.81 -19.96,-129.74 -9.98,-19.96 -39.92,-39.92 -79.84,-59.88 -39.92,-9.99 -89.82,-29.95 -169.66,-29.95 -9.98,0 -19.96,-9.98 -19.96,-39.92 0,-19.96 9.98,-39.91 19.96,-39.91 59.88,0 129.74,0 199.6,9.98 79.84,9.98 139.73,9.98 189.63,9.98 49.91,0 119.77,0 189.63,-9.98 79.84,-9.98 149.71,-9.98 209.59,-9.98 9.99,0 19.96,9.98 19.96,39.91 0,19.96 -9.98,39.92 -19.96,39.92 -69.86,9.99 -129.74,19.96 -169.66,29.95 -39.92,9.98 -59.88,29.94 -79.84,59.88 -19.96,19.96 -19.96,69.86 -19.96,129.74l0 808.41c0,209.59 39.92,369.26 119.77,459.09 79.84,99.8 209.59,149.7 389.24,149.7 339.33,0 508.99,-209.59 508.99,-638.74l0 -778.46c0,-79.84 -19.96,-129.74 -59.88,-159.69 -39.92,-29.94 -109.78,-49.9 -219.57,-59.88 -9.98,0 -19.96,-9.98 -19.96,-39.92 0,-19.96 9.99,-39.91 19.96,-39.91 39.92,0 89.83,0 159.69,9.98 69.86,9.98 119.77,9.98 159.69,9.98 39.92,0 89.82,0 149.7,-9.98 59.88,-9.98 119.77,-9.98 159.69,-9.98 49.86,9.97 49.86,19.95 49.86,49.89z"/>
    <path class="fil8" d="M18137.78 3639.53c0,19.96 -9.98,39.92 -19.96,39.92 -59.88,0 -129.74,0 -209.59,-9.99 -79.85,-9.98 -139.73,-9.98 -189.63,-9.98 -49.9,0 -109.78,0 -179.64,9.98 -69.87,9.99 -139.73,9.99 -189.63,9.99 -9.99,0 -19.96,-9.99 -19.96,-39.92 0,-19.96 9.98,-29.95 19.96,-29.95 69.86,-9.98 129.74,-19.95 159.68,-39.91 39.92,-19.96 59.88,-29.95 69.87,-59.88 9.98,-19.96 9.98,-69.87 9.98,-119.77l0 -568.88 -978.06 0.01 0 568.88c0,59.88 9.98,99.8 9.98,119.76 9.99,19.96 29.95,39.92 69.87,59.88 39.92,9.99 89.82,29.95 159.68,39.92 9.99,0 19.96,9.99 19.96,29.95 0,19.96 -9.98,39.92 -19.96,39.92 -59.88,0 -119.76,0 -189.63,-9.99 -69.86,-9.98 -129.74,-9.98 -179.64,-9.98 -49.91,0 -119.77,0 -189.63,9.98 -79.84,9.99 -149.71,9.99 -209.59,9.99 -9.99,0 -19.96,-9.99 -19.96,-39.92 0,-19.96 9.98,-29.95 19.96,-29.95 99.8,-9.98 169.66,-29.94 209.59,-59.88 39.92,-29.94 59.88,-79.84 59.88,-159.68l0 -1207.62c0,-59.88 -9.99,-99.81 -19.96,-129.74 -19.96,-19.96 -39.92,-39.92 -79.84,-59.88 -39.92,-9.99 -89.83,-29.95 -169.67,-29.95 -9.98,0 -19.96,-9.98 -19.96,-39.92 0,-19.96 9.99,-39.91 19.96,-39.91 59.88,0 129.75,0 209.59,9.98 79.85,9.98 139.73,9.98 189.63,9.98 49.91,0 109.79,0 179.65,-9.98 69.86,-9.98 139.73,-9.98 189.63,-9.98 9.98,0 19.96,9.98 19.96,39.91 0,19.96 -9.98,39.92 -19.96,39.92 -69.86,9.99 -119.77,19.96 -149.7,29.95 -29.95,9.98 -59.88,29.94 -69.87,49.9 -9.98,19.96 -19.96,69.86 -19.96,139.73l0 548.91 978.06 -0.01 0 -548.91c0,-59.88 0,-99.81 -9.99,-119.77 -9.98,-19.96 -29.94,-39.92 -69.86,-59.88 -29.94,-19.96 -89.82,-29.94 -159.69,-39.92 -9.98,0 -19.96,-9.98 -19.96,-39.92 0,-19.96 9.99,-39.91 19.96,-39.91 59.88,0 119.77,0 189.63,9.98 69.87,9.98 129.75,9.98 179.65,9.98 49.9,0 119.77,0 189.63,-9.98 79.84,-9.98 149.7,-9.98 209.59,-9.98 9.98,0 19.96,9.98 19.96,39.91 0,19.96 -9.99,39.92 -19.96,39.92 -69.86,9.99 -129.74,19.96 -169.66,29.95 -39.92,9.98 -59.88,29.94 -79.84,59.88 -9.99,19.96 -19.96,69.86 -19.96,129.74l0 1207.62c0,79.84 19.96,129.74 59.88,159.68 39.92,29.95 109.78,49.91 209.59,59.88 19.94,0 19.94,9.98 19.94,29.94z"/>
    <path class="fil8" d="M15982.04 3639.53c0,19.96 -9.99,39.92 -19.96,39.92 -59.88,0 -129.74,0 -199.61,-9.99 -59.88,-9.98 -119.76,-9.98 -159.68,-9.98 -49.91,0 -119.77,0 -189.63,9.98 -79.84,9.99 -149.71,9.99 -209.59,9.99 -9.99,0 -19.96,-9.99 -19.96,-39.92 0,-19.96 9.98,-39.92 19.96,-39.92 79.84,0 129.74,-9.98 159.68,-29.94 29.95,-19.96 49.91,-39.92 49.91,-79.84 0,-19.96 -9.99,-59.88 -29.95,-109.79l-149.7 -429.15 -528.95 0 -149.71 399.21c-19.96,49.9 -29.94,89.82 -29.94,119.77 0,79.84 69.86,119.76 209.59,119.76 9.98,0 19.96,9.99 19.96,39.92 0,19.96 -9.98,39.92 -19.96,39.92 -49.9,0 -109.78,0 -169.66,-9.98 -59.88,-9.99 -109.78,-9.99 -159.69,-9.99 -39.92,0 -79.84,0 -139.72,9.99 -59.88,9.98 -109.79,9.98 -149.71,9.98 -9.98,0 -19.96,-9.98 -19.96,-29.94 0,-19.96 9.99,-39.92 29.95,-39.92 69.86,-9.98 129.74,-29.94 169.66,-59.88 39.92,-29.94 79.84,-99.81 129.74,-199.61l598.82 -1477.08c9.98,-9.99 19.96,-19.96 39.92,-19.96 19.96,0 29.94,9.98 39.92,19.96l528.95 1477.08c29.95,79.84 69.87,139.73 119.77,179.65 49.9,39.92 119.77,59.88 199.6,69.86 29.95,19.96 29.95,29.94 29.95,49.9l0 0zm-768.49 -758.5l-229.55 -658.7 -239.52 658.7 469.07 0z"/>
    <path class="fil8" d="M14075.8 1932.9c0,19.96 -9.99,39.92 -19.96,39.92 -109.79,9.98 -179.65,29.94 -219.57,59.88 -39.92,29.94 -59.88,79.84 -59.88,159.69l0 808.4c0,229.55 -59.88,409.2 -169.66,538.94 -109.78,129.74 -269.47,189.63 -469.07,189.63 -229.55,0 -409.2,-59.88 -538.94,-189.63 -129.74,-119.77 -189.63,-289.43 -189.63,-508.99l0 -848.33c0,-59.88 -9.99,-99.81 -19.96,-129.74 -9.99,-19.96 -39.92,-39.92 -79.84,-59.88 -39.92,-9.99 -89.82,-29.95 -169.66,-29.95 -9.99,0 -19.96,-9.98 -19.96,-39.92 0,-19.96 9.98,-39.91 19.96,-39.91 59.88,0 129.74,0 199.6,9.98 79.84,9.98 139.73,9.98 189.63,9.98 49.91,0 119.77,0 189.63,-9.98 79.84,-9.98 149.7,-9.98 209.59,-9.98 9.99,0 19.96,9.98 19.96,39.91 0,19.96 -9.98,39.92 -19.96,39.92 -69.86,9.99 -129.74,19.96 -169.66,29.95 -39.92,9.98 -59.88,29.94 -79.84,59.88 -9.98,19.96 -19.96,69.86 -19.96,129.74l0 808.41c0,209.59 39.92,369.26 119.77,459.09 79.84,99.8 209.59,149.7 389.23,149.7 339.33,0 509,-209.59 509,-638.74l0 -778.46c0,-79.84 -19.96,-129.74 -59.88,-159.69 -39.92,-29.94 -109.79,-49.9 -219.57,-59.88 -9.98,0 -19.96,-9.98 -19.96,-39.92 0,-19.96 9.99,-39.91 19.96,-39.91 39.92,0 89.83,0 159.69,9.98 69.86,9.98 119.76,9.98 159.68,9.98 39.92,0 89.83,0 149.71,-9.98 59.88,-9.98 119.76,-9.98 159.68,-9.98 39.89,9.97 49.87,19.95 49.87,49.89z"/>
    <path class="fil8" d="M12029.84 3639.53c0,19.96 -9.99,39.92 -19.96,39.92 -59.88,0 -129.75,0 -209.59,-9.99 -79.84,-9.98 -139.73,-9.98 -189.63,-9.98 -49.91,0 -109.79,0 -179.65,9.98 -69.86,9.99 -139.72,9.99 -189.63,9.99 -9.98,0 -19.96,-9.99 -19.96,-39.92 0,-19.96 9.99,-29.95 19.96,-29.95 69.86,-9.98 129.74,-19.95 159.69,-39.91 39.92,-19.96 59.88,-29.95 69.86,-59.88 9.98,-19.96 9.98,-69.87 9.98,-119.77l0 -568.88 -978.06 0.01 0 568.88c0,59.88 9.98,99.8 9.98,119.76 9.98,19.96 29.94,39.92 69.86,59.88 39.92,9.99 89.83,29.95 159.69,39.92 9.98,0 19.96,9.99 19.96,29.95 0,19.96 -9.98,39.92 -19.96,39.92 -59.88,0 -119.77,0 -189.63,-9.99 -69.86,-9.98 -129.74,-9.98 -179.65,-9.98 -49.9,0 -119.76,0 -189.63,9.98 -79.84,9.99 -149.7,9.99 -209.59,9.99 -9.98,0 -19.96,-9.99 -19.96,-39.92 0,-19.96 9.99,-29.95 19.96,-29.95 99.81,-9.98 169.67,-29.94 209.59,-59.88 39.93,-29.93 59.88,-79.84 59.88,-159.68l0.01 -1207.62c0,-59.88 -9.98,-99.81 -19.96,-129.74 -19.96,-19.96 -39.92,-39.92 -79.84,-59.88 -39.92,-9.99 -89.82,-29.95 -169.66,-29.95 -9.98,0 -19.96,-9.98 -19.96,-39.92 0,-19.96 9.98,-39.91 19.96,-39.91 59.88,0 129.74,0 209.59,9.98 79.84,9.98 139.73,9.98 189.63,9.98 49.9,0 109.78,0 179.65,-9.98 69.86,-9.98 139.72,-9.98 189.63,-9.98 9.98,0 19.96,9.98 19.96,39.91 0,19.96 -9.99,39.92 -19.96,39.92 -69.87,9.99 -119.77,19.96 -149.71,29.95 -29.94,9.98 -59.88,29.94 -69.86,49.9 -9.98,19.96 -19.96,69.86 -19.96,139.73l0 548.91 978.05 -0.01 0 -548.91c0,-59.88 0,-99.81 -9.98,-119.77 -9.98,-19.96 -29.94,-39.92 -69.86,-59.88 -29.95,-19.96 -89.83,-29.94 -159.69,-39.92 -9.98,0 -19.96,-9.98 -19.96,-39.92 0,-19.96 9.98,-39.91 19.96,-39.91 59.88,0 119.77,0 189.63,9.98 69.86,9.98 129.74,9.98 179.65,9.98 49.9,0 119.76,0 189.63,-9.98 79.83,-9.98 149.7,-9.98 209.58,-9.98 9.99,0 19.96,9.98 19.96,39.91 0,19.96 -9.98,39.92 -19.96,39.92 -69.86,9.99 -129.74,19.96 -169.66,29.95 -39.92,9.98 -59.88,29.94 -79.84,59.88 -19.96,19.96 -19.96,69.86 -19.96,129.74l0 1207.62c0,79.84 19.96,129.74 59.88,159.68 39.92,29.95 109.79,49.91 209.59,59.88 9.96,0 19.95,9.98 19.95,29.94z"/>
    <path class="fil8" d="M9724.38 3639.53c0,19.96 -9.98,39.92 -19.96,39.92 -59.88,0 -129.74,0 -199.6,-9.99 -79.84,-9.98 -139.73,-9.98 -189.63,-9.98 -49.91,0 -119.77,0 -189.63,9.98 -79.84,9.99 -149.7,9.99 -209.59,9.99 -9.98,0 -19.96,-9.99 -19.96,-39.92 0,-19.96 9.98,-29.95 19.96,-29.95 99.81,-9.98 169.66,-29.94 209.59,-59.87 39.93,-29.94 59.88,-79.84 59.88,-159.69l0.01 -1207.61c0,-59.88 -9.98,-99.81 -19.96,-129.74 -9.98,-19.96 -39.92,-39.92 -79.84,-59.88 -39.91,-9.99 -89.82,-29.95 -169.66,-29.95 -9.98,0 -19.96,-9.98 -19.96,-39.92 0,-19.96 9.99,-39.91 19.96,-39.91 59.88,0 129.75,0 209.59,9.98 79.84,9.98 139.73,9.98 189.63,9.98 49.91,0 119.77,0 189.63,-9.98 79.84,-9.98 149.7,-9.98 199.61,-9.98 9.98,0 19.96,9.98 19.96,39.91 0,19.96 -9.99,39.92 -19.96,39.92 -69.87,9.99 -129.74,19.96 -159.69,29.95 -39.92,9.98 -59.88,29.94 -79.84,59.88 -9.98,19.96 -19.96,69.86 -19.96,129.74l0 1207.62c0,59.88 9.99,99.8 19.96,129.74 9.99,19.96 39.92,39.92 79.84,59.88 39.92,9.98 89.82,29.94 159.69,29.94 19.93,0 19.93,9.98 19.93,29.94z"/>
    <path class="fil8" d="M8666.48 3639.53c0,19.96 -9.99,39.92 -19.96,39.92 -59.88,0 -129.75,0 -209.59,-9.99 -79.84,-9.98 -139.73,-9.98 -189.63,-9.98 -49.91,0 -109.79,0 -179.65,9.98 -69.86,9.99 -139.73,9.99 -189.63,9.99 -9.98,0 -19.96,-9.99 -19.96,-39.92 0,-19.96 9.99,-29.95 19.96,-29.95 69.86,-9.98 129.74,-19.95 159.69,-39.91 39.92,-19.96 59.88,-29.95 69.86,-59.88 9.98,-19.96 9.98,-69.87 9.98,-119.77l0 -568.88 -978.06 0.01 0 568.88c0,59.88 9.98,99.8 19.96,119.76 9.97,19.96 29.94,39.92 69.86,59.88 39.92,9.99 89.82,29.95 159.68,39.92 9.99,0 19.96,9.99 19.96,29.95 0,19.96 -9.98,39.92 -19.96,39.92 -59.87,0 -119.76,0 -189.62,-9.99 -69.87,-9.98 -129.75,-9.98 -179.65,-9.98 -49.9,0 -119.77,0 -189.63,9.98 -79.84,9.99 -149.7,9.99 -209.59,9.99 -9.98,0 -19.96,-9.99 -19.96,-39.92 0,-19.96 9.98,-29.95 19.96,-29.95 99.81,-9.98 169.66,-29.94 209.59,-59.88 39.93,-29.93 59.88,-79.84 59.88,-159.68l0.01 -1207.62c0,-59.88 -9.99,-99.81 -19.96,-129.74 -19.96,-19.96 -39.92,-39.92 -79.84,-59.88 -39.92,-9.99 -89.83,-29.95 -169.66,-29.95 -9.99,0 -19.96,-9.98 -19.96,-39.92 0,-19.96 9.98,-39.91 19.96,-39.91 59.88,0 129.74,0 209.59,9.98 79.83,9.98 139.72,9.98 189.63,9.98 49.9,0 109.78,0 179.64,-9.98 69.86,-9.98 139.73,-9.98 189.63,-9.98 9.98,0 19.96,9.98 19.96,39.91 0,19.96 -9.98,39.92 -19.96,39.92 -69.86,9.99 -119.77,19.96 -149.7,29.95 -29.95,9.98 -59.88,29.94 -69.86,49.9 -9.99,19.96 -19.96,69.86 -19.96,139.73l0 548.91 978.05 -0.01 0 -548.91c0,-59.88 0,-99.81 -9.99,-119.77 -9.98,-19.96 -29.94,-39.92 -69.86,-59.88 -29.94,-19.96 -89.82,-29.94 -159.69,-39.92 -9.98,0 -19.95,-9.98 -19.95,-39.92 0,-19.96 9.98,-39.91 19.95,-39.91 59.88,0 119.77,0 189.63,9.98 69.87,9.98 129.75,9.98 179.65,9.98 49.9,0 119.77,0 189.63,-9.98 79.84,-9.98 149.7,-9.98 209.59,-9.98 9.98,0 19.96,9.98 19.96,39.91 0,19.96 -9.98,39.92 -19.96,39.92 -69.86,9.99 -129.74,19.96 -169.66,29.95 -39.92,9.98 -59.88,29.94 -79.84,59.88 -19.96,29.93 -19.98,69.85 -19.98,129.74l0 1207.62c0,79.84 19.96,129.74 59.88,159.68 39.92,29.95 109.79,49.91 209.59,59.88 9.99,0 9.99,9.98 9.99,29.94z"/>
    <path class="fil8" d="M6450.85 3200.4c-29.95,139.72 -59.88,289.43 -89.83,439.13 -49.9,0 -139.72,9.98 -269.47,29.94 -159.68,29.95 -289.42,39.92 -369.26,39.92 -199.61,0 -369.27,-39.92 -509,-119.76 -149.7,-79.84 -259.48,-189.63 -339.33,-329.35 -79.84,-139.73 -119.77,-299.42 -119.77,-479.06 0,-169.66 39.92,-329.35 129.75,-479.06 89.82,-149.7 209.59,-259.48 359.29,-339.33 149.7,-79.85 319.37,-119.77 518.98,-119.77 79.84,0 189.63,9.99 319.37,29.95 109.78,9.98 179.64,19.96 229.55,19.96 9.98,119.76 29.94,269.46 59.88,439.13 0,9.98 -9.99,19.96 -39.92,19.96 -19.96,0 -29.95,-9.99 -29.95,-19.96 -29.94,-119.77 -99.8,-209.59 -199.6,-289.43 -99.8,-79.84 -219.57,-109.79 -349.31,-109.79 -199.61,0 -369.27,79.84 -508.99,249.51 -139.73,169.67 -209.59,369.27 -209.59,608.8 0,229.55 69.86,429.16 199.6,598.82 139.73,159.69 299.41,249.51 499.02,249.51 309.39,0 518.98,-139.73 648.72,-429.15 9.98,-9.99 19.96,-19.96 29.94,-19.96 29.94,-9.97 39.92,0.01 39.92,9.99z"/>
   </g>
  </g>
 </g>
</svg>
